<svg width="425" height="56" viewBox="0 0 425 56" fill="none" xmlns="http://www.w3.org/2000/svg">
<g clip-path="url(#clip0_1_610)">
<path d="M0 8.84517C0.0448223 8.5666 0.1478 8.30032 0.302376 8.06332C0.456951 7.82631 0.659736 7.62373 0.897794 7.46857C3.66022 5.18405 16.1997 1.61083 25.5624 0.458813C27.6364 0.158154 29.7312 0.0210591 31.8272 0.0487874H33.455C40.1342 0.0487874 43.3899 0.556425 47.0501 2.33327C50.3946 3.86605 51.8548 5.58436 51.8548 7.92745C51.8548 12.1938 47.2968 16.6164 39.2364 19.4574L36.9574 20.2775L39.1575 20.4728C45.7478 21.0878 51.2036 22.7671 53.5616 24.9442C53.9923 25.3846 54.5802 25.6404 55.1993 25.6569C56.1698 25.6299 57.128 25.8772 57.9617 26.3696C58.0139 26.4252 58.0422 26.4987 58.0406 26.5746C58.0406 26.8284 57.6361 26.9846 56.6594 27.1311C56.0083 27.1311 55.8504 27.2385 55.8504 27.4923C55.8452 27.6649 55.872 27.8369 55.9294 28C56.1277 28.8476 56.2107 29.7177 56.176 30.5871C56.2577 31.8199 55.9435 33.0466 55.2782 34.092C53.0781 38.1631 49.0036 41.8145 42.4526 45.8075C35.0539 50.2623 26.9692 53.4908 18.5182 55.3654C16.5958 55.802 14.6302 56.0247 12.6579 56.0292C11.03 56.0292 9.15549 55.9707 8.58327 55.9218C6.82197 55.5662 5.14686 54.8767 3.65036 53.8912C3.25949 53.5429 2.94292 53.1208 2.71928 52.6496C2.49564 52.1785 2.36942 51.6679 2.34806 51.1478C2.34806 48.5606 5.12036 45.2022 10.3295 41.3361C16.3477 37.0697 23.5103 33.721 32.6362 30.9776C36.7897 29.6987 45.8267 27.4142 48.9148 26.8089C49.4483 26.7465 49.97 26.6084 50.4637 26.3988C50.4637 25.9986 48.017 24.4463 46.8035 23.9581C42.6127 22.6368 38.2264 22.0262 33.8299 22.152H30.0809L26.4207 22.9623C24.2995 23.4211 21.0438 24.3389 19.0904 24.9149L15.5091 26.0376L13.5359 29.3375C11.4148 32.9498 8.88911 38.1241 8.88911 38.6415C8.88911 39.1589 8.56353 39.6178 7.67561 39.6178C7.42896 39.6178 7.26125 39.5592 7.02447 39.5592C5.63339 39.4616 4.90332 39.159 4.90332 37.9874C4.90332 36.5132 6.12668 33.6234 8.84965 27.8731V27.7754C8.84965 27.6778 8.84964 27.6778 8.69179 27.6778C8.28126 27.7007 7.87263 27.7496 7.46843 27.8243C6.68972 27.9654 5.90166 28.0503 5.1105 28.0781C4.36125 28.1243 3.61703 27.9291 2.98934 27.5216C2.58484 27.219 2.3382 27.0139 2.3382 26.8089C2.3382 26.6038 2.58485 26.35 3.07814 25.8912C3.72928 25.3347 4.29163 25.0321 7.46843 24.1632L11.2174 23.1869L12.4408 21.2343C14.3571 18.055 16.5036 15.0173 18.8635 12.145C21.3512 9.04324 24.0439 6.10794 26.9238 3.35843C27.3382 3.05578 27.6638 2.70428 27.6638 2.59689C27.5834 2.57272 27.5008 2.55638 27.4171 2.54809C24.4031 2.85563 21.4113 3.34799 18.459 4.0223C12.352 5.34029 4.78493 7.82984 3.88714 8.79637C3.80821 8.95257 3.72928 9.00134 3.72928 9.10873C3.72928 9.21612 3.88714 9.30403 4.21271 9.46024C4.53828 9.61644 4.78492 9.76286 4.78492 9.91907C4.78492 10.0753 4.13379 10.3194 2.91042 10.3194C1.13457 10.3096 0 9.68478 0 8.84517ZM18.232 39.9498C11.1484 43.9623 6.39306 48.5411 6.39306 51.2845C6.36369 51.5798 6.41837 51.8774 6.55091 52.1436C6.72621 52.6248 7.03126 53.0493 7.433 53.3711C7.83474 53.6929 8.31784 53.8998 8.82992 53.9693C9.26027 54.0406 9.69586 54.0765 10.1322 54.0766C11.8265 54.0336 13.5151 53.864 15.1835 53.569C21.8528 52.2413 30.4854 48.6875 37.9736 44.2161C46.6851 39.032 51.5687 33.7015 51.5687 29.6304V29.4253L51.4108 28.1074L46.6555 29.3179C34.7573 32.3152 26.3714 35.4686 18.232 39.9498ZM32.0442 2.65547C32.0442 3.05574 31.0576 4.38354 27.8118 8.79637C24.8027 12.8187 20.1559 19.2134 18.6957 21.3514V21.449C18.6957 21.5076 18.6957 21.5076 18.8536 21.5076H19.0312C19.268 21.449 21.0043 21.1953 22.8493 20.9414C24.6942 20.6876 26.7956 20.4826 27.3283 20.3849C30.5759 19.7151 33.7437 18.7105 36.7798 17.3877C43.6859 14.4588 47.5237 10.7294 47.5237 7.52714C47.5017 6.62354 47.187 5.75082 46.6259 5.03762C45.1657 3.16314 40.7656 2.0404 34.7869 2.0404C32.7447 2.0404 31.689 2.13804 31.689 2.29424C31.689 2.45045 31.689 2.40167 31.8469 2.45048C32.0047 2.4993 32.0738 2.5383 32.0738 2.64569L32.0442 2.65547Z" fill="#8574EE"/>
<path d="M100.059 33.1157C100.059 33.3696 99.1615 33.9846 95.6592 36.2691C88.5755 40.8967 83.8202 43.1032 78.5617 44.0794C77.0311 44.3452 75.4785 44.4662 73.9248 44.4407C72.7799 44.4657 71.6348 44.3971 70.5013 44.2357C66.555 43.4254 64.3154 41.3068 64.3154 38.4951C64.3065 37.8303 64.4167 37.1692 64.641 36.5425C64.8965 35.9557 65.0883 35.3437 65.2132 34.7169C65.2922 34.0042 68.2223 30.4407 69.939 29.0251C72.1511 27.1892 74.9445 26.1803 77.8316 26.1743H78.6406C79.8906 26.1742 81.1013 26.6058 82.0641 27.3947C82.5574 27.8047 82.6363 28.1561 82.6363 29.1227C82.6363 30.8019 81.4919 32.2273 78.69 34.1018C76.4365 35.761 73.6839 36.6208 70.8762 36.5425H68.6762L68.5084 37.099C68.404 37.5175 68.351 37.9469 68.3506 38.3779C68.3323 39.1425 68.4698 39.9029 68.7551 40.6136C69.6529 42.0781 71.5274 42.8982 74.132 42.8982C75.1979 42.8947 76.2601 42.7736 77.2989 42.5369C81.3735 41.6778 84.8758 40.2036 90.9828 36.7964C96.8431 33.4965 98.2243 32.6862 99.0432 32.6862C99.3282 32.7117 99.6043 32.7983 99.8521 32.94C99.9311 32.9791 100.059 33.0279 100.059 33.1157ZM69.5246 34.7949C69.5246 34.8437 69.6134 34.8926 69.6134 34.9512C69.8139 35.0551 70.0383 35.1056 70.2645 35.0976C71.073 35.055 71.8692 34.8835 72.6225 34.5899C74.7968 33.8302 76.7509 32.5567 78.3151 30.88C78.815 30.3702 79.1306 29.7112 79.2128 29.0055C79.2273 28.8231 79.1896 28.6404 79.1041 28.4781C79.0187 28.3158 78.8888 28.1806 78.7294 28.0878C78.3747 27.8868 77.9875 27.7481 77.585 27.6778C76.0612 27.9864 74.6359 28.6565 73.4315 29.6304C71.7247 31.046 69.5246 33.9944 69.5246 34.7559V34.7949Z" fill="#8574EE"/>
<path d="M134.087 32.4714C134.113 32.4984 134.134 32.5305 134.148 32.5658C134.161 32.601 134.167 32.6387 134.165 32.6764C134.165 33.0279 133.682 33.3794 132.784 33.3794C124.24 33.5844 115.203 37.1966 110.724 39.6374L109.343 40.3989L109.826 41.5607C110.138 42.2666 110.305 43.0263 110.32 43.7964C110.32 46.1883 108.692 48.5314 105.387 50.6304C103.18 52.1528 100.586 53.0322 97.8987 53.1687C97.5189 53.1571 97.1402 53.1246 96.7641 53.0711C96.2973 53.0291 95.8473 52.8779 95.4511 52.6301C95.0549 52.3823 94.7238 52.0449 94.4851 51.6457C94.3822 51.4215 94.3252 51.1792 94.3174 50.9331C94.3174 48.8536 97.6619 44.9386 102.378 41.8926C104.085 40.7699 104.41 40.4184 104.41 40.0572V39.9498L101.973 36.4449C100.991 35.0944 100.12 33.6676 99.3687 32.1785C99.1422 31.5761 99.0317 30.937 99.0431 30.2943C99.0431 27.9024 100.75 25.4714 103.976 23.3822C105.833 22.0333 108.109 21.3701 110.409 21.5077C112.441 21.5077 112.688 21.5077 113.585 21.9568C114.189 22.1979 114.713 22.5988 115.101 23.1155C115.489 23.6321 115.726 24.2446 115.785 24.8856C115.785 26.2134 115.371 26.6625 113.99 26.6625C112.766 26.6625 112.688 26.516 112.283 25.1883C112.167 24.7135 111.912 24.2828 111.551 23.9497C111.19 23.6165 110.738 23.3955 110.251 23.3138H110.083C109.372 23.4045 108.695 23.6659 108.11 24.0753C105.338 25.5983 103.059 28.3417 103.059 30.0697C103.059 31.3877 104.282 33.5746 106.808 37.0307L107.863 38.5049L110.635 37.1869C117.477 33.9341 124.948 32.1823 132.538 32.0516C133.356 32.0613 134.008 32.2176 134.087 32.4714ZM105.92 43.5425C105.92 43.1911 105.841 42.9861 105.673 42.9372C105.19 42.9372 102.092 45.3291 100.464 46.9986C99.1615 48.3751 98.1848 50.152 98.1848 50.9037C98.1848 51.1088 98.2637 51.265 98.5104 51.265C99.0804 51.1396 99.6288 50.9324 100.138 50.65C102.664 49.4784 105.022 47.1939 105.594 45.2608C105.761 44.7003 105.87 44.1247 105.92 43.5425Z" fill="#8574EE"/>
<path d="M140.44 30.841C138.003 36.5327 136.937 40.3988 136.937 43.9525V45.0167C136.812 46.1703 137.072 47.3327 137.677 48.3264C138.161 49.1855 138.565 49.5955 139.059 49.5955C139.431 49.5452 139.79 49.4224 140.114 49.2343C143.459 47.6137 146.626 44.6653 153.63 36.0739C156.482 32.6179 156.886 32.2176 158.267 32.2176C159.086 32.2176 159.57 32.2175 159.57 32.6178C159.57 33.1255 158.583 34.3459 156.403 37.0892C153.691 40.6926 150.751 44.123 147.602 47.3598C145.861 48.8695 143.881 50.0865 141.742 50.9623C140.203 51.3606 138.595 51.4305 137.026 51.1673C136.427 51.0786 135.854 50.8659 135.344 50.5429C134.834 50.2198 134.399 49.7939 134.067 49.2929C132.865 47.5447 132.267 45.4593 132.36 43.3472C132.459 40.501 133.008 37.6877 133.988 35.0097C136.343 28.8433 139.374 22.9505 143.025 17.4365C143.614 16.6532 144.132 15.8201 144.574 14.947C144.574 14.947 144.495 14.8493 144.001 14.8493C143.113 14.8493 140.992 14.9958 135.704 15.3082C130.416 15.6206 122.997 16.2845 120.067 16.7727C119.234 16.929 118.389 17.0139 117.541 17.0265C116.981 17.0636 116.428 16.8813 116.002 16.5188C115.835 16.4212 115.691 16.2898 115.579 16.1334C115.467 15.977 115.389 15.799 115.351 15.6109C115.351 15.357 115.509 15.152 115.834 14.947C117.137 14.1855 131.955 12.6625 143.597 12.2524L146.606 12.1548L147.997 10.2022C149.536 8.06417 150.434 7.36121 151.943 7.36121C152.831 7.36121 153.246 7.45885 153.246 7.8689C153.061 8.58167 152.724 9.24729 152.259 9.82148C151.608 10.9833 150.957 11.8522 150.957 11.901C151.713 11.9937 152.475 12.0263 153.236 11.9986C166.061 12.0572 180.86 13.6778 184.086 15.4058C185.073 15.9135 185.477 16.47 185.477 16.9288C185.477 17.2412 185.231 17.4951 184.737 17.5927H184.501C183.977 17.5767 183.469 17.4179 183.031 17.1339C181.728 16.3236 178.098 15.7085 171.872 15.1813C168.291 14.9275 159.422 14.6248 154.449 14.6248H152.664H149.24L148.027 16.509C145.252 21.1551 142.72 25.9387 140.44 30.841Z" fill="#8574EE"/>
<path d="M193.854 42.3221V41.1116C193.854 34.7071 196.863 27.9511 202.891 20.4728C210.3 11.2273 220.797 3.34864 228.7 1.01531C230.812 0.385449 233.005 0.0567147 235.211 0.0390184C236.922 -0.0768081 238.627 0.33231 240.095 1.21058C240.499 1.56204 240.825 1.65969 242.206 1.65969H242.985C243.794 1.65969 243.883 1.76707 243.972 2.06972C243.806 2.70887 243.465 3.29006 242.985 3.74891C242.393 4.55356 241.977 5.47114 241.762 6.44348C241.279 9.23567 239.651 12.4379 236.721 16.0404C235.855 17.2686 234.811 18.364 233.623 19.2915C232.725 19.8577 232.478 20.0042 231.916 20.0042C231.643 20.0262 231.37 20.0262 231.097 20.0042C229.548 19.8577 229.065 19.5453 229.065 18.6373C229.065 17.2608 232.478 11.5202 236.069 6.99997C236.796 6.12138 237.422 5.16521 237.934 4.14922C237.804 3.69037 237.578 3.26371 237.27 2.89704C236.962 2.53037 236.58 2.23189 236.148 2.02092C235.707 1.85524 235.239 1.76926 234.767 1.76707C231.097 1.76707 224.26 5.11573 218.646 9.74335C208.711 17.9735 202.032 27.4728 199.428 36.8256C198.965 38.9303 198.72 41.0762 198.698 43.2301C198.672 44.0508 198.755 44.8713 198.944 45.6708C199.595 48.3556 200.917 50.1422 203.177 51.099C204.168 51.5696 205.254 51.8133 206.354 51.8117C208.065 51.7462 209.745 51.3307 211.286 50.5914C214.12 49.176 216.817 47.5094 219.347 45.6122C223.194 42.4344 226.838 39.024 230.258 35.4003C233.267 32.3054 233.346 32.1492 234.323 32.1492H234.57C235.389 32.1492 235.872 32.2566 235.872 32.608C235.872 32.9595 235.389 33.5843 234.491 34.6875C232.616 36.8744 228.956 40.4867 224.882 44.2943C218.202 50.5425 212.263 53.4909 206.235 53.4909C205.31 53.4971 204.386 53.4285 203.473 53.2859C201.542 53.0432 199.699 52.347 198.096 51.2552C195.314 49.2343 193.854 46.6959 193.854 42.3221Z" fill="#8574EE"/>
<path d="M293.301 32.8717C293.281 32.9891 293.226 33.0979 293.143 33.1841C292.563 33.7285 291.936 34.2218 291.269 34.6583C287.972 36.9959 284.235 38.6558 280.278 39.5398C278.667 39.9565 277.011 40.1794 275.345 40.2037C271.764 40.2037 269.426 38.8368 268.262 36.0837C267.857 34.9707 267.699 34.2092 267.699 31.2608C267.786 30.0545 267.703 28.8421 267.453 27.6583C267.048 27.6583 262.648 30.4993 260.29 32.2762C254.371 36.855 247.465 43.9135 244.169 48.5412C242.62 50.8257 242.453 50.9721 241.397 51.1283H241.071C240.715 51.1607 240.36 51.0519 240.085 50.8257C239.759 50.6695 239.601 50.523 239.601 50.318C239.597 50.2872 239.603 50.2558 239.617 50.228C239.631 50.2001 239.653 50.1771 239.68 50.1618V49.9568C239.678 49.6537 239.592 49.3569 239.434 49.0977C239.344 48.8697 239.291 48.6292 239.276 48.385C239.307 47.8957 239.417 47.4144 239.601 46.9596C240.588 43.9624 244.485 35.6834 248.639 28.2148C254.006 18.2566 261.987 7.33194 267.601 2.40168C268.491 1.52184 269.687 1.01197 270.945 0.976334C271.188 0.952387 271.432 0.952387 271.675 0.976334C271.932 0.99245 272.173 1.10046 272.355 1.28017C272.536 1.45989 272.646 1.69898 272.662 1.95262C272.642 2.21684 272.522 2.46396 272.327 2.64486C272.131 2.82576 271.874 2.92719 271.606 2.92891C271.113 3.03631 270.62 3.43659 269.732 4.40312C264.927 9.93869 252.881 28.6932 247.908 38.3487C247.628 38.8919 247.384 39.4529 247.178 40.0279C247.257 39.9694 248.076 39.2078 249.053 38.2511C254.509 32.862 261.513 27.5119 265.095 26.106C265.987 25.7075 266.958 25.5139 267.936 25.5398C269.732 25.5398 270.541 25.8522 271.192 26.6625C271.606 27.1214 271.685 28.0293 271.932 31.0851C272.09 35.5565 272.504 36.8257 274.211 37.9191C274.675 38.345 275.284 38.5821 275.918 38.583C276.635 38.5305 277.345 38.4095 278.039 38.2218C281.755 37.4633 285.308 36.0656 288.536 34.0921C290.894 32.7741 291.545 32.4715 292.196 32.4715C292.847 32.4715 293.301 32.6179 293.301 32.8717Z" fill="#8574EE"/>
<path d="M326.638 34.2482C323.866 35.2603 320.962 35.8751 318.015 36.074C317.275 36.1228 316.466 36.1813 315.647 36.1813C313.53 36.2069 311.42 35.9307 309.382 35.3612L307.755 34.8536L307.182 35.6736C305.397 38.2608 301.815 41.1116 299.615 41.7169C298.773 41.9827 297.895 42.1209 297.011 42.1269C296.378 42.1198 295.748 42.0345 295.136 41.8731C294.204 41.585 293.395 40.9997 292.834 40.2085C292.274 39.4172 291.994 38.4646 292.038 37.4993C292.038 37.2455 292.127 36.9917 292.127 36.7378C292.556 33.7326 293.938 30.9397 296.073 28.7615C297.62 27.2142 299.559 26.108 301.687 25.5593C302.175 25.5025 302.666 25.4699 303.157 25.4616C303.88 25.3928 304.608 25.5141 305.268 25.8131C305.657 25.9662 306.074 26.0361 306.492 26.0181C307.099 26.0376 307.693 26.1937 308.23 26.4745C308.767 26.7553 309.232 27.1535 309.59 27.6388C309.808 28.1893 309.918 28.7756 309.915 29.3668C309.88 30.2936 309.741 31.2137 309.501 32.1102C309.501 32.2664 309.422 32.3641 309.422 32.4714C309.422 32.7741 309.668 32.9791 310.408 33.3794C311.985 34.2902 313.793 34.7341 315.618 34.6583C315.943 34.6583 316.358 34.5997 316.683 34.5997C319.485 34.3977 322.263 33.9401 324.98 33.2329C326.123 32.9178 327.298 32.7311 328.483 32.6764C329.134 32.6764 329.38 32.774 329.38 33.0279C329.38 33.2817 328.818 33.5844 326.638 34.2482ZM305.14 32.569C305.126 32.2677 305.042 31.9736 304.893 31.7099C304.602 31.1636 304.462 30.5503 304.489 29.9331C304.465 29.4375 304.578 28.945 304.815 28.5077C304.946 28.3153 305.055 28.109 305.14 27.8926C305.14 27.7462 304.972 27.7462 304.647 27.7462C303.759 27.7462 300.7 29.8257 299.852 30.9972C299.201 31.8076 298.865 31.9735 298.303 32.0614C297.741 32.1492 297.484 32.2176 297.001 33.3794C296.309 34.7957 295.92 36.3376 295.856 37.9093C295.81 38.348 295.867 38.7913 296.023 39.2045C296.179 39.6178 296.429 39.9898 296.754 40.2915C296.816 40.3566 296.891 40.4084 296.974 40.4437C297.057 40.4789 297.147 40.4969 297.238 40.4965C297.798 40.3927 298.327 40.1658 298.786 39.8326C300.607 38.6701 302.185 37.1719 303.433 35.4198C304.657 33.7894 305.14 33.1841 305.14 32.569Z" fill="#8574EE"/>
<path d="M346.182 40.4965C343.583 41.7258 340.853 42.6624 338.043 43.2887C337.043 43.4407 336.035 43.5256 335.024 43.5425C334.291 43.5424 333.559 43.4935 332.834 43.3961C329.163 42.8885 327.299 41.7169 326.648 39.5788C326.572 39.299 326.542 39.0089 326.559 38.7197C326.559 36.0739 329.085 31.6025 332.745 27.9805C333.106 27.5505 333.558 27.2043 334.07 26.9665C334.581 26.7286 335.139 26.6048 335.705 26.6039C335.941 26.6039 336.109 26.6039 336.356 26.6039C337.165 26.6625 337.49 26.8578 337.49 27.219C337.474 27.4739 337.357 27.7122 337.165 27.8829C336.394 28.6338 335.712 29.469 335.132 30.3724C332.439 34.1799 331.058 36.9721 331.058 38.749C331.039 39.3008 331.213 39.8421 331.551 40.2818C331.957 40.7556 332.471 41.1268 333.051 41.3645C333.631 41.6022 334.26 41.6996 334.886 41.6485C336.439 41.5835 337.975 41.2941 339.444 40.7894C342.216 39.9205 344.978 38.7001 351.411 35.3515C353.858 34.1311 356.137 33.0084 356.462 32.9107C356.673 32.844 356.892 32.8078 357.113 32.8034C357.764 32.8034 358.416 33.0084 358.416 33.311C358.416 33.6137 349.112 39.0711 346.182 40.4965ZM336.819 22.5621C337.572 20.3363 338.582 18.2037 339.828 16.2064C340.154 15.6988 341.219 15.4449 342.354 15.4449H343.005C344.071 15.5523 344.554 15.7476 344.554 16.2552C344.554 16.7629 344.229 17.3292 343.41 18.2957C342.551 19.2693 341.787 20.322 341.131 21.4393C340.765 22.113 340.36 22.765 339.917 23.3919C339.506 23.5625 339.059 23.6329 338.615 23.5969C338.171 23.6264 337.726 23.5563 337.313 23.3919C337.171 23.3005 337.053 23.1781 336.968 23.0342C336.882 22.8902 336.831 22.7287 336.819 22.5621Z" fill="#8574EE"/>
<path d="M390.874 32.9791C390.874 33.1841 390.716 33.3794 390.47 33.7406C389.088 35.3613 380.535 41.551 377.042 43.3962L374.349 44.8313C372.319 45.7556 370.191 46.4531 368.005 46.9108C366.739 47.1185 365.46 47.2359 364.177 47.2622C363.852 47.2622 363.526 47.2134 363.279 47.2134C361.276 47.0733 359.356 46.3686 357.745 45.1827C357.123 44.6167 356.633 43.9235 356.31 43.1514C355.986 42.3792 355.836 41.5466 355.87 40.7114C355.87 38.4269 356.926 35.6834 359.126 32.735C362.086 28.8299 365.805 26.7406 369.554 26.7406H370.255C371.961 26.7406 372.455 26.8871 373.264 27.5021C373.757 27.8536 373.915 28.0098 373.915 28.4784C373.883 28.8359 373.83 29.1912 373.757 29.5426C373.431 31.6221 372.366 33.6626 370.985 34.4241C370.554 34.7953 370.007 35.009 369.436 35.0294C369.167 35.0513 368.896 35.0513 368.627 35.0294C368.037 34.9802 367.458 34.8418 366.91 34.6193C366.788 34.4894 366.695 34.3349 366.639 34.1664C366.583 33.9979 366.564 33.8193 366.585 33.643C366.743 32.1787 367.341 30.7948 368.301 29.6695L369.11 28.6932L368.38 29.0056C366.673 29.7085 363.497 33.2232 361.869 36.113C360.937 37.7358 360.381 39.5431 360.241 41.4045C360.227 41.9292 360.321 42.4512 360.516 42.9394C360.711 43.4275 361.003 43.8717 361.375 44.2455C361.78 44.6515 362.262 44.9731 362.794 45.1911C363.326 45.4091 363.897 45.5192 364.473 45.5147C365.608 45.4673 366.73 45.2636 367.808 44.9094C371.06 43.8042 374.174 42.3368 377.092 40.5356C380.18 38.6611 387.026 34.0823 388.003 33.2232C388.217 33.018 388.473 32.8612 388.754 32.7635C389.035 32.6657 389.335 32.6294 389.631 32.657C390.47 32.6179 390.874 32.7253 390.874 32.9791Z" fill="#8574EE"/>
<path d="M424.99 33.1157C424.99 33.3696 424.092 33.9846 420.6 36.2691C413.516 40.8967 408.761 43.1032 403.502 44.0794C401.969 44.3456 400.413 44.4666 398.856 44.4407C397.714 44.4661 396.572 44.3975 395.442 44.2357C391.496 43.4254 389.256 41.3068 389.256 38.4951C389.247 37.8303 389.357 37.1692 389.582 36.5425C389.836 35.956 390.024 35.3438 390.144 34.7169C390.233 34.0042 393.163 30.4407 394.87 29.0251C397.084 27.1921 399.876 26.1836 402.762 26.1743H403.581C404.831 26.1742 406.042 26.6058 407.005 27.3947C407.488 27.8047 407.567 28.1561 407.567 29.1227C407.567 30.8019 406.433 32.2273 403.621 34.1018C401.368 35.7624 398.615 36.6223 395.807 36.5425H393.607L393.449 37.099C393.336 37.5161 393.28 37.9462 393.281 38.3779C393.268 39.1422 393.405 39.9016 393.686 40.6136C394.584 42.0781 396.458 42.8982 399.063 42.8982C400.132 42.8942 401.197 42.7731 402.24 42.5369C406.304 41.6778 409.807 40.2036 415.914 36.7964C421.774 33.4965 423.165 32.6862 423.974 32.6862C424.262 32.7103 424.542 32.797 424.793 32.94C424.911 32.9791 424.99 33.0279 424.99 33.1157ZM394.465 34.7949C394.465 34.8437 394.544 34.8926 394.544 34.9512C394.745 35.0543 394.969 35.1047 395.195 35.0976C396.004 35.056 396.8 34.8845 397.553 34.5899C399.729 33.8277 401.686 32.5547 403.256 30.88C403.756 30.3702 404.071 29.7112 404.153 29.0055C404.167 28.8221 404.128 28.6387 404.041 28.4763C403.953 28.314 403.821 28.1793 403.66 28.0878C403.309 27.8871 402.925 27.7484 402.526 27.6778C401.002 27.9864 399.577 28.6565 398.372 29.6304C396.665 31.046 394.465 33.9944 394.465 34.7559V34.7949Z" fill="#8574EE"/>
</g>
<defs>
<clipPath id="clip0_1_610">
<rect width="425" height="56" fill="white"/>
</clipPath>
</defs>
</svg>
