<svg width="73" height="62" viewBox="0 0 73 62" fill="none" xmlns="http://www.w3.org/2000/svg">
<path d="M46.2053 0C49.2151 0.954082 51.9876 2.53698 54.339 4.64371C56.6905 6.75045 58.5672 9.3329 59.8447 12.2199C61.1222 15.1068 61.7714 18.2323 61.7491 21.3892C61.7268 24.546 61.0336 27.662 59.7154 30.5306C63.9505 28.7945 67.8045 26.9313 72.4208 28.731C71.6373 28.4134 68.6092 33.3042 68.1857 33.9394C67.3503 35.9119 66.3367 37.8041 65.1576 39.5924C61.9597 43.5242 57.7063 46.4621 52.8968 48.0614C48.6715 49.158 44.355 49.8667 40.0009 50.1787C35.8928 50.7503 33.2246 50.0304 30.6411 52.5288C28.3927 55.0745 26.6145 57.9994 25.3896 61.1671C23.5473 60.3414 18.5075 52.9734 17.5334 51.2373C17.724 51.5549 33.8176 44.568 34.9822 43.2976C28.3543 44.4833 18.6557 41.3286 13.3406 37.1788C8.21544 32.7974 3.72546 27.7238 0 22.104C0.296459 22.5063 45.9512 32.0551 45.9512 32.0551C45.9512 32.0551 45.4642 7.24097 46.2053 0Z" fill="#40ADA2"/>
</svg>
