<svg width="36" height="46" viewBox="0 0 36 46" fill="none" xmlns="http://www.w3.org/2000/svg">
<path d="M24.9873 31.1023C23.9497 29.6202 22.8696 27.7359 23.7378 26.148C24.3943 24.8988 26.046 24.3695 26.5542 23.0568C26.6602 22.7653 26.7105 22.4565 26.7025 22.1464L28.0578 20.3255L25.0931 20.0503C24.3351 19.702 23.5131 19.5145 22.6791 19.4998C19.418 19.4998 19.5452 21.2148 17.7452 17.9542C14.8018 12.5552 13.256 5.78007 11.1384 0C9.19504 1.44775 7.58183 3.29223 6.40595 5.41103C5.23007 7.52982 4.51838 9.87448 4.31811 12.2893C4.11784 14.7042 4.43349 17.134 5.24429 19.4175C6.05508 21.701 7.3425 23.7859 9.02085 25.5339H0L3.95984 34.2147C6.53075 33.6518 8.94117 32.5155 11.0112 30.8906C13.3719 35.2468 16.842 38.902 21.0701 41.4861C25.2981 44.0701 30.1341 45.4912 35.0881 45.6054C31.7847 40.7499 28.4177 35.9155 24.9873 31.1023Z" fill="#F3C7A6"/>
</svg>
