<svg width="1314" height="474" viewBox="0 0 1314 474" fill="none" xmlns="http://www.w3.org/2000/svg">
<path opacity="0.68" d="M111.567 470.237C107.37 466.622 102.423 463.946 97.0699 462.394C91.7165 460.842 86.0838 460.45 80.5612 461.246C79.7522 457.47 77.8035 454.021 74.9693 451.348C72.1351 448.676 68.5469 446.905 64.6727 446.265C60.7985 445.626 56.818 446.148 53.2505 447.764C49.683 449.38 46.694 452.015 44.6734 455.324C42.6566 453.388 40.0558 452.145 37.26 451.78C34.4643 451.416 31.6236 451.951 29.1628 453.304C27.0633 454.572 25.3273 456.345 24.1188 458.455C22.9102 460.565 22.2688 462.943 22.2552 465.364C18.4339 464.527 14.5186 464.18 10.6066 464.331C6.44634 464.485 0.260945 466.86 0.00976157 471.718C-0.0363401 472.494 0.0811965 473.271 0.355093 474H114C113.584 472.538 112.737 471.229 111.567 470.237Z" fill="#E1E0DF"/>
<path opacity="0.48" d="M848.012 176.461C846.552 171.915 843.955 167.817 840.467 164.556C836.978 161.295 832.715 158.979 828.08 157.827C823.446 156.676 818.594 156.727 813.985 157.976C809.376 159.225 805.162 161.63 801.744 164.964C798.45 162.707 794.638 161.323 790.663 160.942C786.689 160.56 782.682 161.194 779.02 162.782C775.357 164.371 772.157 166.864 769.721 170.026C767.284 173.189 765.69 176.918 765.088 180.864C762.451 178.951 759.32 177.832 756.067 177.641C752.813 177.449 749.573 178.193 746.729 179.785C742.912 182.049 740.137 185.721 739 190.011H876.96C872.407 179.382 859.172 172.819 848.012 176.461Z" fill="#E1E0DF"/>
<path opacity="0.68" d="M1088.06 31.0361C1093.34 26.4074 1099.56 22.9806 1106.3 20.9928C1113.03 19.0049 1120.12 18.5035 1127.07 19.5232C1128.09 14.6875 1130.54 10.2706 1134.1 6.84861C1137.67 3.42665 1142.18 1.15847 1147.06 0.339841C1151.93 -0.478787 1156.94 0.190136 1161.43 2.25941C1165.91 4.32869 1169.67 7.70226 1172.22 11.9401C1174.75 9.46034 1178.03 7.86827 1181.54 7.40197C1185.06 6.93567 1188.63 7.6202 1191.73 9.35318C1194.37 10.9771 1196.55 13.2471 1198.08 15.949C1199.6 18.651 1200.4 21.6956 1200.42 24.7959C1205.23 23.7245 1210.15 23.2798 1215.07 23.4728C1220.31 23.6703 1228.09 26.7114 1228.41 32.932C1228.46 33.9257 1228.32 34.9207 1227.97 35.8546H1085C1085.52 33.9821 1086.59 32.3059 1088.06 31.0361Z" fill="#E1E0DF"/>
<path opacity="0.48" d="M1292.82 50.0944C1291.75 46.768 1289.85 43.7696 1287.3 41.3835C1284.74 38.9974 1281.63 37.3027 1278.23 36.4601C1274.84 35.6175 1271.29 35.6549 1267.92 36.5688C1264.55 37.4826 1261.46 39.2427 1258.96 41.682C1256.55 40.0307 1253.76 39.0181 1250.85 38.7389C1247.95 38.4597 1245.02 38.9232 1242.34 40.0858C1239.65 41.2484 1237.31 43.0722 1235.53 45.3863C1233.75 47.7004 1232.58 50.4291 1232.14 53.3168C1230.21 51.9164 1227.92 51.0979 1225.54 50.9578C1223.16 50.8178 1220.79 51.3622 1218.71 52.5267C1215.91 54.1839 1213.88 56.8708 1213.05 60.0095H1314C1310.67 52.2323 1300.98 47.4297 1292.82 50.0944Z" fill="#E1E0DF"/>
</svg>
