<svg width="273" height="92" viewBox="0 0 273 92" fill="none" xmlns="http://www.w3.org/2000/svg">
<g clip-path="url(#clip0_2009_102)">
<path opacity="0.68" d="M191.1 81.1484C192.996 79.4857 195.232 78.2548 197.651 77.5407C200.07 76.8267 202.616 76.6466 205.111 77.0129C205.477 75.2758 206.357 73.6892 207.638 72.46C208.919 71.2308 210.541 70.4161 212.291 70.122C214.042 69.828 215.841 70.0683 217.453 70.8116C219.065 71.5549 220.416 72.7667 221.329 74.289C222.24 73.3982 223.416 72.8263 224.679 72.6588C225.943 72.4913 227.226 72.7372 228.338 73.3597C229.287 73.943 230.072 74.7584 230.618 75.729C231.164 76.6995 231.454 77.7932 231.46 78.9068C233.187 78.522 234.956 78.3623 236.724 78.4316C238.604 78.5025 241.399 79.5949 241.513 81.8294C241.534 82.1864 241.48 82.5438 241.357 82.8792H190C190.188 82.2066 190.571 81.6045 191.1 81.1484Z" fill="#E1E0DF"/>
<path opacity="0.48" d="M264.65 87.9942C264.266 86.7993 263.584 85.7223 262.667 84.8652C261.75 84.0081 260.629 83.3993 259.411 83.0966C258.193 82.794 256.918 82.8074 255.706 83.1357C254.495 83.4639 253.387 84.0962 252.489 84.9724C251.623 84.3792 250.621 84.0155 249.576 83.9152C248.532 83.8149 247.479 83.9814 246.516 84.399C245.553 84.8167 244.712 85.4718 244.072 86.303C243.431 87.1342 243.012 88.1144 242.854 89.1517C242.161 88.6487 241.338 88.3547 240.483 88.3044C239.628 88.2541 238.776 88.4496 238.029 88.8679C237.025 89.4632 236.296 90.4283 235.997 91.5558H272.259C271.062 88.7622 267.583 87.037 264.65 87.9942Z" fill="#E1E0DF"/>
<path opacity="0.68" d="M40.0757 78.7062C38.5681 77.4077 36.7913 76.4464 34.8684 75.8888C32.9454 75.3312 30.922 75.1905 28.9383 75.4766C28.6477 74.1201 27.9477 72.8811 26.9296 71.9211C25.9115 70.9612 24.6226 70.3249 23.231 70.0953C21.8393 69.8657 20.4095 70.0533 19.128 70.6338C17.8466 71.2142 16.7729 72.1606 16.0471 73.3494C15.3226 72.6538 14.3884 72.2072 13.3841 72.0764C12.3799 71.9455 11.3595 72.1376 10.4755 72.6237C9.72136 73.0792 9.0978 73.716 8.66367 74.474C8.22954 75.2319 7.99914 76.086 7.99425 76.9557C6.62163 76.6551 5.21519 76.5304 3.80997 76.5845C2.31558 76.6399 0.0937337 77.493 0.00350644 79.238C-0.0130537 79.5168 0.0291665 79.7959 0.127552 80.0578H40.9498C40.8002 79.5326 40.4962 79.0624 40.0757 78.7062Z" fill="#E1E0DF"/>
<path opacity="0.48" d="M221.158 6.99039C220.634 5.35744 219.701 3.88551 218.448 2.71417C217.195 1.54282 215.663 0.710878 213.998 0.297235C212.334 -0.116407 210.591 -0.098041 208.935 0.350583C207.28 0.799206 205.766 1.66322 204.538 2.8607C203.355 2.05009 201.985 1.55297 200.558 1.41593C199.13 1.27888 197.691 1.50638 196.375 2.07712C195.06 2.64786 193.91 3.54315 193.035 4.67916C192.16 5.81516 191.587 7.1547 191.371 8.5723C190.424 7.88486 189.299 7.48302 188.13 7.41428C186.962 7.34555 185.798 7.61279 184.776 8.18442C183.405 8.99797 182.408 10.317 182 11.8578H231.556C229.921 8.03993 225.167 5.68228 221.158 6.99039Z" fill="#E1E0DF"/>
</g>
<defs>
<clipPath id="clip0_2009_102">
<rect width="272.258" height="91.5558" fill="white"/>
</clipPath>
</defs>
</svg>
