<svg width="38" height="37" viewBox="0 0 38 37" fill="none" xmlns="http://www.w3.org/2000/svg">
<path d="M24.0909 8.00004H27.7272C28.1287 8.00004 28.4545 7.67423 28.4545 7.27277V2.37314C28.4545 1.99204 28.1614 1.67495 27.7818 1.64804C26.6247 1.56586 24.3643 1.45459 22.7389 1.45459C18.2727 1.45459 15.3636 4.13095 15.3636 8.99495V13.8182H10.2727C9.87123 13.8182 9.54541 14.144 9.54541 14.5455V19.6364C9.54541 20.0379 9.87123 20.3637 10.2727 20.3637H15.3636V34.1819C15.3636 34.5833 15.6894 34.9091 16.0909 34.9091H21.1818C21.5832 34.9091 21.909 34.5833 21.909 34.1819V20.3637H27.1614C27.5323 20.3637 27.8436 20.0851 27.8843 19.7164L28.4501 14.6255C28.4981 14.195 28.1607 13.8182 27.7272 13.8182H21.909V10.1819C21.909 8.97677 22.8858 8.00004 24.0909 8.00004Z" fill="#087E72"/>
</svg>
