<svg width="75" height="56" viewBox="0 0 75 56" fill="none" xmlns="http://www.w3.org/2000/svg">
<g clip-path="url(#clip0_2009_854)">
<path d="M66.0939 33.3062V42.9757C66.0939 49.8492 63.8177 54.4852 63.7212 54.6812C63.5443 55.0385 63.2708 55.3393 62.9303 55.5488C62.5925 55.7583 62.2011 55.8684 61.8043 55.8684C61.4719 55.8684 61.1448 55.7905 60.8472 55.6401C60.3378 55.385 59.9518 54.9391 59.7721 54.3992C59.5925 53.8593 59.6327 53.2684 59.8874 52.7581C59.9035 52.7258 61.807 48.7801 61.807 42.9757V33.3062C61.807 32.4521 61.4692 31.6328 60.866 31.0285C60.2628 30.4242 59.4451 30.083 58.5898 30.083C57.7346 30.083 56.9169 30.4242 56.3137 31.0285C55.7105 31.6328 55.3727 32.4521 55.3727 33.3062V34.3806C55.3727 34.95 55.1475 35.498 54.7453 35.9009C54.3432 36.3038 53.7963 36.5294 53.2279 36.5294C52.6595 36.5294 52.1126 36.3038 51.7105 35.9009C51.3083 35.498 51.0831 34.9527 51.0831 34.3806V29.0086C51.0831 28.1545 50.7453 27.3353 50.1421 26.7309C49.5389 26.1266 48.7212 25.7882 47.866 25.7882C47.0134 25.7882 46.1931 26.1266 45.5898 26.7309C44.9866 27.3353 44.6488 28.1545 44.6488 29.0086V32.2318C44.6488 32.8012 44.4236 33.3492 44.0215 33.7521C43.6193 34.155 43.0724 34.3806 42.504 34.3806C41.9357 34.3806 41.3888 34.155 40.9866 33.7521C40.5845 33.3492 40.3593 32.8012 40.3593 32.2318V13.9672C40.3593 13.113 40.0215 12.2938 39.4183 11.6868C38.815 11.0824 37.9973 10.744 37.1421 10.744C36.2896 10.744 35.4719 11.0824 34.866 11.6868C34.2628 12.2911 33.925 13.1103 33.925 13.9672V42.9757C33.925 43.4431 33.7721 43.897 33.4933 44.2704C33.2118 44.6437 32.8177 44.915 32.37 45.0439C31.9223 45.1729 31.4451 45.1514 31.0108 44.9822C30.5764 44.8156 30.2065 44.5094 29.9598 44.1119L24.9518 36.054L24.9142 35.9922C24.7024 35.6269 24.4209 35.3046 24.0858 35.0467C23.7507 34.7889 23.3673 34.5982 22.9598 34.4907C22.5523 34.3806 22.126 34.3537 21.7078 34.4075C21.2896 34.4612 20.8847 34.6009 20.5175 34.8104C20.1502 35.0226 19.8311 35.3046 19.5738 35.6403C19.3164 35.9761 19.1287 36.3602 19.0188 36.7684C18.9089 37.1767 18.8821 37.6038 18.9357 38.0255C18.992 38.4445 19.1287 38.8501 19.3378 39.2181L27.1904 52.6479C27.3566 52.8924 27.4692 53.169 27.5228 53.4564C27.5764 53.7465 27.5711 54.0447 27.5067 54.3321C27.4424 54.6195 27.3164 54.8907 27.1421 55.1271C26.9679 55.3635 26.7453 55.5622 26.4906 55.7127C26.236 55.8604 25.9545 55.9544 25.6595 55.9866C25.3673 56.0215 25.0697 55.992 24.7882 55.9087C24.5067 55.8228 24.2467 55.6804 24.0215 55.487C23.7963 55.2963 23.614 55.06 23.4853 54.794L15.6247 41.3642C14.622 39.6398 14.3459 37.5877 14.8553 35.6591C15.3646 33.7306 16.6166 32.0841 18.3378 31.0795C20.059 30.075 22.1073 29.7983 24.0322 30.3087C25.9571 30.819 27.6006 32.0733 28.6032 33.7977L29.6301 35.455V13.9672C29.6301 11.9715 30.4209 10.0591 31.8284 8.64891C33.236 7.23878 35.1448 6.44641 37.1368 6.44641C39.1287 6.44641 41.0376 7.23878 42.4451 8.64891C43.8526 10.0591 44.6435 11.9715 44.6435 13.9672V22.2131C45.6086 21.7538 46.6595 21.5067 47.7293 21.4879C48.799 21.4691 49.8579 21.6786 50.8392 22.103C51.8204 22.5274 52.6998 23.1559 53.4183 23.9483C54.1368 24.7406 54.6783 25.678 55.0081 26.696C56.1502 26.0756 57.437 25.7613 58.7373 25.7882C60.0376 25.815 61.3083 26.1776 62.4263 26.8437C63.5443 27.5099 64.4692 28.4553 65.1126 29.5888C65.7561 30.7223 66.0939 32.0035 66.0939 33.3062Z" fill="#A3A3A3"/>
<path d="M21.4504 8.59514H7.3244L12.2413 3.66905C12.6434 3.26615 12.8686 2.7209 12.8686 2.14878C12.8686 1.57936 12.6434 1.03142 12.2413 0.628519C11.8391 0.225622 11.2949 0 10.7239 0C10.1555 0 9.60858 0.225622 9.20643 0.628519L0.627346 9.22366C0.428954 9.42242 0.270777 9.66147 0.160858 9.92201C0.0563003 10.1826 0 10.4619 0 10.7439C0 11.0259 0.0563003 11.3053 0.163539 11.5658C0.270777 11.8264 0.428954 12.0627 0.630027 12.2642L9.20912 20.8593C9.61126 21.2622 10.1555 21.4878 10.7239 21.4878C11.2922 21.4878 11.8391 21.2622 12.2413 20.8566C12.6434 20.4537 12.8686 19.9085 12.8686 19.3391C12.8686 18.7696 12.6408 18.2217 12.2386 17.8188L7.3244 12.8927H21.4504C22.0188 12.8927 22.5657 12.6671 22.9678 12.2642C23.37 11.8613 23.5952 11.3133 23.5952 10.7439C23.5952 10.1745 23.37 9.62655 22.9678 9.22366C22.563 8.82076 22.0188 8.59514 21.4504 8.59514Z" fill="#A3A3A3"/>
<path d="M53.5496 8.59514H67.6756L62.7587 3.66905C62.3565 3.26615 62.1286 2.7209 62.1286 2.14878C62.1286 1.57936 62.3538 1.03142 62.756 0.62852C63.1581 0.225623 63.7024 4.33298e-07 64.2734 -0.00268555C64.8418 -0.00268555 65.3887 0.222937 65.7908 0.625834L74.3699 9.22097C74.5683 9.41973 74.7265 9.65878 74.8364 9.91932C74.9437 10.1799 75 10.4592 75 10.7412C75 11.0233 74.9437 11.3026 74.8364 11.5631C74.7292 11.8237 74.571 12.0601 74.3699 12.2615L65.7908 20.8566C65.3887 21.2595 64.8418 21.4852 64.2734 21.4852C63.7051 21.4852 63.1581 21.2595 62.756 20.854C62.3538 20.4511 62.1286 19.9031 62.1286 19.3337C62.1286 18.7643 62.3565 18.2163 62.7587 17.8134L67.6756 12.8927H53.5496C52.9812 12.8927 52.4343 12.6671 52.0321 12.2642C51.63 11.8613 51.4048 11.3133 51.4048 10.7439C51.4048 10.1745 51.63 9.62655 52.0321 9.22366C52.4343 8.82076 52.9812 8.59514 53.5496 8.59514Z" fill="#A3A3A3"/>
</g>
<defs>
<clipPath id="clip0_2009_854">
<rect width="75" height="56" fill="white"/>
</clipPath>
</defs>
</svg>
