<svg width="75" height="56" viewBox="0 0 75 56" fill="none" xmlns="http://www.w3.org/2000/svg">
<g clip-path="url(#clip0_2009_89)">
<path d="M66.0939 33.3061V42.9756C66.0939 49.849 63.8177 54.485 63.7212 54.6811C63.5443 55.0384 63.2708 55.3392 62.9303 55.5487C62.5925 55.7582 62.2011 55.8683 61.8043 55.8683C61.4719 55.8683 61.1448 55.7904 60.8472 55.64C60.3378 55.3848 59.9518 54.939 59.7721 54.3991C59.5925 53.8592 59.6327 53.2683 59.8874 52.758C59.9035 52.7257 61.807 48.78 61.807 42.9756V33.3061C61.807 32.4519 61.4692 31.6327 60.866 31.0284C60.2628 30.424 59.4451 30.0829 58.5898 30.0829C57.7346 30.0829 56.9169 30.424 56.3137 31.0284C55.7105 31.6327 55.3727 32.4519 55.3727 33.3061V34.3805C55.3727 34.9499 55.1475 35.4978 54.7453 35.9007C54.3432 36.3036 53.7963 36.5293 53.2279 36.5293C52.6595 36.5293 52.1126 36.3036 51.7105 35.9007C51.3083 35.4978 51.0831 34.9526 51.0831 34.3805V29.0085C51.0831 28.1544 50.7453 27.3352 50.1421 26.7308C49.5389 26.1265 48.7212 25.788 47.866 25.788C47.0134 25.788 46.1931 26.1265 45.5898 26.7308C44.9866 27.3352 44.6488 28.1544 44.6488 29.0085V32.2317C44.6488 32.8011 44.4236 33.3491 44.0215 33.752C43.6193 34.1549 43.0724 34.3805 42.504 34.3805C41.9357 34.3805 41.3888 34.1549 40.9866 33.752C40.5845 33.3491 40.3593 32.8011 40.3593 32.2317V13.967C40.3593 13.1129 40.0215 12.2937 39.4183 11.6866C38.815 11.0823 37.9973 10.7439 37.1421 10.7439C36.2896 10.7439 35.4719 11.0823 34.866 11.6866C34.2628 12.291 33.925 13.1102 33.925 13.967V42.9756C33.925 43.443 33.7721 43.8969 33.4933 44.2703C33.2118 44.6436 32.8177 44.9149 32.37 45.0438C31.9223 45.1727 31.4451 45.1513 31.0108 44.982C30.5764 44.8155 30.2065 44.5093 29.9598 44.1118L24.9518 36.0538L24.9142 35.9921C24.7024 35.6268 24.4209 35.3045 24.0858 35.0466C23.7507 34.7887 23.3673 34.598 22.9598 34.4906C22.5523 34.3805 22.126 34.3536 21.7078 34.4073C21.2896 34.4611 20.8847 34.6007 20.5175 34.8102C20.1502 35.0224 19.8311 35.3045 19.5738 35.6402C19.3164 35.976 19.1287 36.36 19.0188 36.7683C18.9089 37.1766 18.8821 37.6037 18.9357 38.0254C18.992 38.4444 19.1287 38.8499 19.3378 39.2179L27.1904 52.6478C27.3566 52.8923 27.4692 53.1689 27.5228 53.4563C27.5764 53.7464 27.5711 54.0445 27.5067 54.3319C27.4424 54.6193 27.3164 54.8906 27.1421 55.127C26.9679 55.3634 26.7453 55.5621 26.4906 55.7125C26.236 55.8603 25.9545 55.9543 25.6595 55.9865C25.3673 56.0214 25.0697 55.9919 24.7882 55.9086C24.5067 55.8227 24.2467 55.6803 24.0215 55.4869C23.7963 55.2962 23.614 55.0598 23.4853 54.7939L15.6247 41.364C14.622 39.6396 14.3459 37.5875 14.8553 35.659C15.3646 33.7305 16.6166 32.084 18.3378 31.0794C20.059 30.0749 22.1073 29.7982 24.0322 30.3085C25.9571 30.8189 27.6006 32.0732 28.6032 33.7976L29.6301 35.4549V13.967C29.6301 11.9713 30.4209 10.0589 31.8284 8.64879C33.236 7.23865 35.1448 6.44629 37.1368 6.44629C39.1287 6.44629 41.0376 7.23865 42.4451 8.64879C43.8526 10.0589 44.6435 11.9713 44.6435 13.967V22.213C45.6086 21.7537 46.6595 21.5066 47.7293 21.4878C48.799 21.469 49.8579 21.6785 50.8392 22.1029C51.8204 22.5273 52.6998 23.1558 53.4183 23.9481C54.1368 24.7405 54.6783 25.6779 55.0081 26.6959C56.1502 26.0754 57.437 25.7612 58.7373 25.788C60.0376 25.8149 61.3083 26.1775 62.4263 26.8436C63.5443 27.5097 64.4692 28.4552 65.1126 29.5887C65.7561 30.7222 66.0939 32.0034 66.0939 33.3061Z" fill="white"/>
<path d="M21.4504 8.59514H7.3244L12.2413 3.66905C12.6434 3.26615 12.8686 2.7209 12.8686 2.14878C12.8686 1.57936 12.6434 1.03142 12.2413 0.628519C11.8391 0.225622 11.2949 0 10.7239 0C10.1555 0 9.60858 0.225622 9.20643 0.628519L0.627346 9.22366C0.428954 9.42242 0.270777 9.66147 0.160858 9.92201C0.0563003 10.1826 0 10.4619 0 10.7439C0 11.0259 0.0563003 11.3053 0.163539 11.5658C0.270777 11.8264 0.428954 12.0627 0.630027 12.2642L9.20912 20.8593C9.61126 21.2622 10.1555 21.4878 10.7239 21.4878C11.2922 21.4878 11.8391 21.2622 12.2413 20.8566C12.6434 20.4537 12.8686 19.9085 12.8686 19.3391C12.8686 18.7696 12.6408 18.2217 12.2386 17.8188L7.3244 12.8927H21.4504C22.0188 12.8927 22.5657 12.6671 22.9678 12.2642C23.37 11.8613 23.5952 11.3133 23.5952 10.7439C23.5952 10.1745 23.37 9.62655 22.9678 9.22366C22.563 8.82076 22.0188 8.59514 21.4504 8.59514Z" fill="white"/>
<path d="M53.5496 8.59514H67.6756L62.7587 3.66905C62.3565 3.26615 62.1286 2.7209 62.1286 2.14878C62.1286 1.57936 62.3538 1.03142 62.756 0.62852C63.1581 0.225623 63.7024 4.33298e-07 64.2734 -0.00268555C64.8418 -0.00268555 65.3887 0.222937 65.7908 0.625834L74.3699 9.22097C74.5683 9.41973 74.7265 9.65878 74.8364 9.91932C74.9437 10.1799 75 10.4592 75 10.7412C75 11.0233 74.9437 11.3026 74.8364 11.5631C74.7292 11.8237 74.571 12.0601 74.3699 12.2615L65.7908 20.8566C65.3887 21.2595 64.8418 21.4852 64.2734 21.4852C63.7051 21.4852 63.1581 21.2595 62.756 20.854C62.3538 20.4511 62.1286 19.9031 62.1286 19.3337C62.1286 18.7643 62.3565 18.2163 62.7587 17.8134L67.6756 12.8927H53.5496C52.9812 12.8927 52.4343 12.6671 52.0321 12.2642C51.63 11.8613 51.4048 11.3133 51.4048 10.7439C51.4048 10.1745 51.63 9.62655 52.0321 9.22366C52.4343 8.82076 52.9812 8.59514 53.5496 8.59514Z" fill="white"/>
</g>
<defs>
<clipPath id="clip0_2009_89">
<rect width="75" height="56" fill="white"/>
</clipPath>
</defs>
</svg>
