<svg width="38" height="37" viewBox="0 0 38 37" fill="none" xmlns="http://www.w3.org/2000/svg">
<path d="M13.3181 15.2428C13.0167 15.2428 12.7277 15.3625 12.5145 15.5756C12.3014 15.7887 12.1817 16.0778 12.1817 16.3791C12.1817 16.6805 12.3014 16.9696 12.5145 17.1827C12.7277 17.3958 13.0167 17.5155 13.3181 17.5155C13.6195 17.5155 13.9085 17.3958 14.1216 17.1827C14.3347 16.9696 14.4544 16.6805 14.4544 16.3791C14.4544 16.0778 14.3347 15.7887 14.1216 15.5756C13.9085 15.3625 13.6195 15.2428 13.3181 15.2428ZM12.1817 24.7125C12.1817 24.4111 12.3014 24.1221 12.5145 23.9089C12.7277 23.6958 13.0167 23.5761 13.3181 23.5761C13.6195 23.5761 13.9085 23.6958 14.1216 23.9089C14.3347 24.1221 14.4544 24.4111 14.4544 24.7125C14.4544 25.0139 14.3347 25.3029 14.1216 25.516C13.9085 25.7291 13.6195 25.8488 13.3181 25.8488C13.0167 25.8488 12.7277 25.7291 12.5145 25.516C12.3014 25.3029 12.1817 25.0139 12.1817 24.7125ZM5.36353 9.56096C5.36353 8.25497 5.88233 7.00247 6.8058 6.079C7.72928 5.15552 8.98178 4.63672 10.2878 4.63672H27.712C29.018 4.63672 30.2705 5.15552 31.194 6.079C32.1175 7.00247 32.6363 8.25497 32.6363 9.56096V26.9852C32.6363 28.2912 32.1175 29.5437 31.194 30.4672C30.2705 31.3906 29.018 31.9094 27.712 31.9094H10.2878C8.98178 31.9094 7.72928 31.3906 6.8058 30.4672C5.88233 29.5437 5.36353 28.2912 5.36353 26.9852V9.56096ZM9.90898 16.3791C9.90898 16.8268 9.99716 17.2701 10.1685 17.6837C10.3398 18.0974 10.5909 18.4732 10.9075 18.7897C11.224 19.1063 11.5999 19.3574 12.0135 19.5287C12.4271 19.7001 12.8704 19.7882 13.3181 19.7882C13.7658 19.7882 14.2091 19.7001 14.6227 19.5287C15.0363 19.3574 15.4121 19.1063 15.7287 18.7897C16.0452 18.4732 16.2963 18.0974 16.4677 17.6837C16.639 17.2701 16.7272 16.8268 16.7272 16.3791C16.7272 15.475 16.368 14.6079 15.7287 13.9686C15.0893 13.3292 14.2222 12.9701 13.3181 12.9701C12.4139 12.9701 11.5468 13.3292 10.9075 13.9686C10.2682 14.6079 9.90898 15.475 9.90898 16.3791ZM13.3181 21.3034C12.4139 21.3034 11.5468 21.6626 10.9075 22.3019C10.2682 22.9412 9.90898 23.8083 9.90898 24.7125C9.90898 25.6166 10.2682 26.4837 10.9075 27.1231C11.5468 27.7624 12.4139 28.1216 13.3181 28.1216C14.2222 28.1216 15.0893 27.7624 15.7287 27.1231C16.368 26.4837 16.7272 25.6166 16.7272 24.7125C16.7272 23.8083 16.368 22.9412 15.7287 22.3019C15.0893 21.6626 14.2222 21.3034 13.3181 21.3034ZM18.9999 16.3791C18.9999 17.0064 19.509 17.5155 20.1363 17.5155H26.9544C27.2558 17.5155 27.5449 17.3958 27.758 17.1827C27.9711 16.9696 28.0908 16.6805 28.0908 16.3791C28.0908 16.0778 27.9711 15.7887 27.758 15.5756C27.5449 15.3625 27.2558 15.2428 26.9544 15.2428H20.1363C19.8349 15.2428 19.5458 15.3625 19.3327 15.5756C19.1196 15.7887 18.9999 16.0778 18.9999 16.3791ZM20.1363 23.5761C19.8349 23.5761 19.5458 23.6958 19.3327 23.9089C19.1196 24.1221 18.9999 24.4111 18.9999 24.7125C18.9999 25.0139 19.1196 25.3029 19.3327 25.516C19.5458 25.7291 19.8349 25.8488 20.1363 25.8488H26.9544C27.2558 25.8488 27.5449 25.7291 27.758 25.516C27.9711 25.3029 28.0908 25.0139 28.0908 24.7125C28.0908 24.4111 27.9711 24.1221 27.758 23.9089C27.5449 23.6958 27.2558 23.5761 26.9544 23.5761H20.1363ZM9.90898 9.56096C9.90898 10.1882 10.4181 10.6973 11.0453 10.6973H26.9544C27.2558 10.6973 27.5449 10.5776 27.758 10.3645C27.9711 10.1514 28.0908 9.86234 28.0908 9.56096C28.0908 9.25958 27.9711 8.97054 27.758 8.75743C27.5449 8.54432 27.2558 8.4246 26.9544 8.4246H11.0453C10.744 8.4246 10.4549 8.54432 10.2418 8.75743C10.0287 8.97054 9.90898 9.25958 9.90898 9.56096Z" fill="#087E72"/>
</svg>
