<svg width="727" height="441" viewBox="0 0 727 441" fill="none" xmlns="http://www.w3.org/2000/svg">
<path d="M133.489 112.76C137.015 87.807 119.689 64.7142 94.7896 61.1807C69.8903 57.6471 46.8473 75.0109 43.3213 99.9638C39.7954 124.917 57.1217 148.01 82.021 151.543C106.92 155.077 129.963 137.713 133.489 112.76Z" fill="#E1EEF2" fill-opacity="0.4"/>
<path d="M388.869 199.732C359.987 195.302 329.167 203.858 317.541 220.788C314.463 225.115 312.773 230.28 312.697 235.594V251.31C312.772 245.977 314.461 240.793 317.541 236.443C329.167 219.574 359.926 210.957 388.869 215.448L490.412 231.225V215.509L388.869 199.732Z" fill="#E1EEF2" fill-opacity="0.4"/>
<path d="M388.869 121.818C359.987 117.389 329.167 125.945 317.541 142.875C314.463 147.202 312.773 152.367 312.697 157.681V172.608C312.773 167.294 314.463 162.13 317.541 157.802C329.167 140.872 359.926 132.316 388.869 136.746L490.412 152.523V137.595L388.869 121.818Z" fill="#E1EEF2" fill-opacity="0.4"/>
<path d="M388.869 43.9034C359.987 39.4737 329.167 48.0297 317.541 64.9596C314.463 69.2871 312.773 74.4518 312.697 79.7658V93.9043C312.773 88.5903 314.463 83.4257 317.541 79.0982C329.167 62.1682 359.926 53.6123 388.869 58.1027L490.412 73.819V59.6197L388.869 43.9034Z" fill="#E1EEF2" fill-opacity="0.4"/>
<path d="M388.869 43.9036L490.412 59.6806V31.0998L388.869 15.323C359.987 10.8326 329.167 19.4492 317.541 36.3185C314.461 40.6682 312.772 45.8523 312.697 51.1852V79.766C312.773 74.452 314.463 69.2873 317.541 64.9598C329.167 48.0299 359.987 39.4739 388.869 43.9036Z" fill="#E1EEF2" fill-opacity="0.4"/>
<path d="M388.869 121.818L490.412 137.595V109.803L388.869 94.0266C359.987 89.5362 329.167 98.1528 317.541 115.022C314.47 119.353 312.781 124.516 312.697 129.828V157.681C312.773 152.367 314.463 147.202 317.541 142.875C329.167 125.945 359.987 117.389 388.869 121.818Z" fill="#E1EEF2" fill-opacity="0.4"/>
<path d="M388.869 199.732L490.412 215.509V188.446L388.869 172.73C359.987 168.239 329.167 176.795 317.541 193.725C314.463 198.053 312.773 203.217 312.697 208.531V235.595C312.773 230.281 314.463 225.116 317.541 220.789C329.167 203.859 359.987 195.303 388.869 199.732Z" fill="#E1EEF2" fill-opacity="0.4"/>
<path d="M571.913 200.036C548.238 196.395 522.988 203.373 513.421 217.147C510.888 220.687 509.513 224.928 509.485 229.284V242.087C509.525 237.733 510.899 233.497 513.421 229.951C522.988 216.237 548.238 209.259 571.913 212.9L655.169 225.703V212.96L571.913 200.036Z" fill="#E1EEF2" fill-opacity="0.4"/>
<path d="M571.913 136.684C548.238 133.044 522.988 140.022 513.421 153.796C510.888 157.336 509.513 161.576 509.485 165.932V178.069C509.517 173.713 510.892 169.474 513.421 165.932C522.988 152.158 548.238 145.18 571.913 148.821L655.169 161.685V149.549L571.913 136.684Z" fill="#E1EEF2" fill-opacity="0.4"/>
<path d="M571.913 73.3339C548.238 69.693 522.988 76.6712 513.421 90.4457C510.888 93.9857 509.513 98.2259 509.485 102.582V114.233C509.513 109.877 510.888 105.637 513.421 102.097C522.988 88.322 548.238 81.3436 571.913 84.9845L655.169 97.7882V86.2589L571.913 73.3339Z" fill="#E1EEF2" fill-opacity="0.4"/>
<path d="M571.913 73.334L655.169 86.1376V62.8969L571.913 50.0931C548.238 46.4523 522.988 53.4306 513.421 67.2052C510.888 70.7452 509.513 74.9853 509.485 79.3413V102.582C509.513 98.226 510.888 93.9858 513.421 90.4458C522.988 76.6713 548.238 69.6931 571.913 73.334Z" fill="#E1EEF2" fill-opacity="0.4"/>
<path d="M571.913 136.685L655.169 149.489V126.915L571.913 114.233C548.238 110.592 522.988 117.571 513.421 131.284C510.892 134.826 509.517 139.065 509.485 143.421V165.994C509.513 161.638 510.888 157.398 513.421 153.858C522.988 140.022 548.238 133.044 571.913 136.685Z" fill="#E1EEF2" fill-opacity="0.4"/>
<path d="M571.913 200.035L655.169 212.9V190.872L571.913 178.069C548.238 174.428 522.988 181.406 513.421 195.181C510.888 198.721 509.513 202.961 509.485 207.317V229.283C509.513 224.927 510.888 220.687 513.421 217.147C522.988 203.373 548.238 196.394 571.913 200.035Z" fill="#E1EEF2" fill-opacity="0.4"/>
<path d="M388.869 1.18414C359.987 -3.30624 329.167 5.2497 317.541 22.1796C314.47 26.5106 312.781 31.6731 312.697 36.9858V79.7658C312.773 74.4519 314.463 69.2872 317.541 64.9597C329.167 48.0298 359.926 39.4131 388.869 43.9035L490.412 59.6805V17.1432L388.869 1.18414Z" fill="#E1EEF2" fill-opacity="0.4"/>
<path d="M388.869 79.0987C359.987 74.6083 329.167 83.1644 317.541 100.094C314.47 104.425 312.781 109.588 312.697 114.9V157.68C312.773 152.366 314.463 147.202 317.541 142.874C329.167 125.944 359.926 117.388 388.869 121.818L490.412 137.595V94.815L388.869 79.0987Z" fill="#E1EEF2" fill-opacity="0.4"/>
<path d="M388.869 157.012C359.987 152.522 329.167 161.078 317.541 178.008C314.47 182.339 312.781 187.501 312.697 192.814V235.594C312.773 230.28 314.463 225.115 317.541 220.788C329.167 203.858 359.926 195.302 388.869 199.732L490.412 215.509V172.729L388.869 157.012Z" fill="#E1EEF2" fill-opacity="0.4"/>
<path d="M571.913 38.5638C548.238 34.923 522.988 41.9013 513.421 55.6759C510.888 59.2159 509.513 63.456 509.485 67.812V102.582C509.513 98.226 510.888 93.9859 513.421 90.4459C522.988 76.6713 548.238 69.6932 571.913 73.334L655.169 86.1376V51.3676L571.913 38.5638Z" fill="#E1EEF2" fill-opacity="0.4"/>
<path d="M571.913 102.097C548.238 98.3952 522.988 105.373 513.421 119.148C510.892 122.69 509.517 126.929 509.485 131.284V165.994C509.513 161.638 510.888 157.397 513.421 153.857C522.988 140.083 548.238 133.105 571.913 136.745L655.169 149.549V114.84L571.913 102.097Z" fill="#E1EEF2" fill-opacity="0.4"/>
<path d="M571.913 165.326C548.238 161.686 522.988 168.664 513.421 182.378C510.892 185.92 509.517 190.158 509.485 194.514V229.223C509.513 224.867 510.888 220.627 513.421 217.087C522.988 203.313 548.238 196.334 571.913 199.975L655.169 212.839V178.069L571.913 165.326Z" fill="#E1EEF2" fill-opacity="0.4"/>
<path d="M452.508 323.884C452.508 323.884 518.205 312.112 561.498 289.964C604.792 267.815 619.566 277.828 621.564 281.893C623.562 285.959 593.771 305.255 563.315 314.661C532.858 324.066 478.726 328.739 452.508 323.884Z" fill="#E1EEF2" fill-opacity="0.4"/>
<path d="M725.529 247.73C722.501 245 705.426 238.932 679.874 259.503C620.958 306.894 557.26 344.031 479.331 336.749C456.996 334.57 435.024 329.575 413.937 321.882C369.312 305.863 327.047 282.986 283.572 263.568C240.097 244.15 197.833 221.092 152.723 207.014C85.028 185.957 25.5676 215.509 6.19154 273.459C-14.0928 333.048 16.5456 391.908 82.2427 419.093C94.2099 424.18 106.586 428.24 119.239 431.229C201.951 449.433 283.088 441.545 362.348 413.025C370.615 409.495 379.63 408.09 388.576 408.938C397.521 409.786 406.114 412.859 413.574 417.879C420.391 422.003 427.493 425.633 434.827 428.741C466.797 442.091 504.581 438.814 536.309 426.496C570.883 413.025 600.795 385.779 627.861 361.143C642.333 347.975 656.38 334.322 670.246 320.669C677.089 313.933 734.127 255.376 725.529 247.73ZM171.554 403.013C141.201 393.064 113.697 375.91 91.3858 353.012C68.4978 329.892 78.6702 292.028 105.312 277.585C129.532 264.539 160.413 268.665 183.362 281.59C244.275 316.057 304.462 352.162 365.012 387.721C299.255 412.054 234.89 421.824 171.554 403.013Z" fill="#E1EEF2" fill-opacity="0.4"/>
</svg>
