<svg width="38" height="38" viewBox="0 0 38 38" fill="none" xmlns="http://www.w3.org/2000/svg">
<path d="M33.7558 26.4595C33.5026 28.3842 32.5573 30.151 31.0966 31.4297C29.6359 32.7085 27.7597 33.4118 25.8183 33.4083C14.5399 33.4083 5.36378 24.2322 5.36378 12.9538C5.3603 11.0124 6.06362 9.13619 7.34238 7.6755C8.62114 6.2148 10.3879 5.26955 12.3126 5.01627C12.7994 4.95684 13.2923 5.05641 13.7177 5.30013C14.1432 5.54385 14.4785 5.91863 14.6734 6.36854L17.6734 13.066V13.083C17.8227 13.4274 17.8844 13.8034 17.8529 14.1775C17.8214 14.5515 17.6978 14.9119 17.493 15.2265C17.4675 15.2649 17.4405 15.3004 17.4121 15.3359L14.4547 18.8416C15.5186 21.0035 17.78 23.245 19.9703 24.3117L23.4277 21.37C23.4617 21.3414 23.4972 21.3149 23.5342 21.2904C23.8486 21.0808 24.2102 20.9528 24.5865 20.9181C24.9627 20.8833 25.3417 20.943 25.6891 21.0916L25.7075 21.1001L32.3993 24.0987C32.85 24.2929 33.2257 24.6279 33.4702 25.0534C33.7147 25.479 33.8149 25.9722 33.7558 26.4595Z" fill="#087E72"/>
</svg>
