<svg width="302" height="90" viewBox="0 0 302 90" fill="none" xmlns="http://www.w3.org/2000/svg">
<path d="M302 0H0V89.7371H302V0Z" fill="#636B9F"/>
<path d="M44.4938 72.7598C44.3799 70.5328 44.0359 68.9968 43.4619 68.1516C42.7503 67.1117 41.3913 66.4208 39.4345 66.0789V65.2456C41.2703 65.3216 43.0919 65.4189 44.8992 65.5376C45.2005 65.5707 45.504 65.5004 45.7602 65.3382C45.85 65.2304 45.9168 65.1051 45.956 64.9703C45.9952 64.8355 46.006 64.694 45.9879 64.5547V51.1005C44.2233 52.1047 42.8856 52.8668 41.9606 53.4081C41.8776 53.768 41.7029 54.1001 41.4535 54.3723C41.2041 54.6444 40.8885 54.8472 40.5374 54.9608L38.0684 47.0122C40.2884 46.5373 42.933 45.9224 46.0022 45.1675V33.9425H43.7608C42.4211 33.9944 41.0989 34.2663 39.8473 34.7473L38.4241 31.8058C40.1402 32.0622 41.87 32.2168 43.6043 32.2687H46.0164V30.132C46.0764 26.1822 45.8266 22.2337 45.2693 18.323C49.3726 19.2727 51.9247 19.9849 52.9256 20.4597C53.6941 20.8443 53.7653 21.2289 53.1534 21.6136L52.1217 22.2475V32.2687H52.4062L53.6728 30.0252C53.7945 29.7803 53.9299 29.5425 54.0784 29.3129C54.726 28.273 55.167 27.7531 55.3947 27.7531C55.7458 27.7531 56.6187 28.5223 58.0134 30.0608C59.408 31.5992 60.1196 32.5774 60.1481 32.9952C59.9915 33.6149 59.4934 33.9211 58.6466 33.9211H52.1501V43.5934C54.5647 42.9476 57.2093 42.2188 60.084 41.4068L60.2049 42.0407C57.7049 43.8451 55.0201 45.6304 52.1501 47.3968V65.0177C52.1501 67.5533 51.7232 69.341 50.8836 70.3738C49.7735 71.6558 47.6436 72.4511 44.4938 72.7598ZM58.725 71.606L57.3018 68.757C58.2034 69.0064 59.1288 69.1592 60.0626 69.2128H61.3292V25.36H60.3543C59.8423 25.4499 59.387 25.7393 59.0879 26.1648L57.6647 23.2304C59.7994 23.4583 62.3254 23.615 65.314 23.6862H80.6195L82.2347 21.3287C82.3486 21.172 82.5195 20.9346 82.7472 20.6164C83.5584 19.5409 84.0707 18.9996 84.3055 18.9996C84.6897 18.9996 85.8021 19.8068 87.6427 21.4213C89.4785 23.0309 90.4034 24.0494 90.4034 24.4697C90.2896 25.0893 89.7916 25.3956 88.9092 25.3956H67.6763V37.3185H79.9863L81.4094 35.5308C81.5803 35.3526 81.735 35.1595 81.8718 34.9539C82.5834 34.1491 83.0247 33.7431 83.2524 33.7431C83.6366 33.7431 84.7774 34.5028 86.6749 36.0223C88.5723 37.5417 89.5211 38.5104 89.5211 38.9282C88.8504 39.6912 87.9341 40.1952 86.9311 40.3527V45.4809C87.0022 49.6688 87.1232 52.9452 87.2726 55.3312C87.0449 55.7158 86.312 56.136 85.0881 56.5919C84.0142 57.055 82.8627 57.3112 81.6939 57.3468H80.5983V54.7543H67.6549V69.2057H81.4664L83.0745 66.8482C83.2239 66.6559 83.4373 66.3638 83.7077 65.9863C84.4193 64.9821 84.8604 64.4835 85.0881 64.4835C85.4723 64.4835 86.5895 65.2812 88.4538 66.8767C90.318 68.4721 91.2432 69.4763 91.2432 69.8966C91.0938 70.5162 90.5742 70.8225 89.6919 70.8225H67.3632C64.4611 70.8667 61.5665 71.1286 58.7036 71.606H58.725ZM67.6478 53.0876H80.5912V38.9496H67.6478V53.0876Z" fill="white"/>
<path d="M100.273 37.1049C99.9713 35.5602 99.4464 34.0678 98.7146 32.6747C98.0355 31.2882 97.1869 29.9915 96.1885 28.8143L96.7008 28.4653C98.2599 28.7409 99.7845 29.1851 101.248 29.7901C102.396 26.0113 103.073 22.1045 103.261 18.1592C105.826 18.974 108.336 19.9518 110.775 21.0865C111.487 21.5495 111.544 21.9127 110.896 22.1834L109.858 22.5893C107.759 25.5314 105.389 28.269 102.778 30.7659C104.393 31.9197 105.232 33.2445 105.311 34.7402C105.37 35.3096 105.259 35.8838 104.994 36.3906C104.728 36.8975 104.318 37.3144 103.816 37.5892C102.706 38.2255 101.525 38.064 100.273 37.1049ZM105.738 72.8168C104.741 72.8168 104.243 72.4322 104.243 71.6629C104.471 68.0922 104.623 64.4835 104.699 60.8368V54.8469C104.436 54.9179 104.166 54.9562 103.895 54.9608C102.049 61.0291 99.7297 65.502 96.9357 68.3795L96.1885 67.9165C96.6337 66.6157 96.9973 65.2884 97.2772 63.9422C97.7361 61.8778 98.024 59.7791 98.1382 57.6673C98.3316 55.6944 98.3316 53.7073 98.1382 51.7343L104.699 53.3511V47.5891C104.122 47.7814 103.205 48.052 101.938 48.3939C101.02 48.6646 100.33 48.8782 99.8672 49.0278C99.7454 49.3483 99.5444 49.6326 99.2831 49.8543C99.0219 50.076 98.7088 50.2278 98.373 50.2956L96.2384 44.0207C97.0021 44.0207 98.5153 44.0018 100.778 43.9638C101.49 43.921 102.066 43.9068 102.45 43.9068C103.911 40.8726 105.097 38.3181 106.008 36.243C107.61 32.7135 108.845 29.0284 109.694 25.246C113.337 26.9316 115.6 28.1187 116.482 28.8072C117.137 29.3058 117.137 29.6334 116.482 29.783L115.386 30.018C112.165 34.9336 108.538 39.5699 104.542 43.8783C105.119 43.8783 106.022 43.8071 107.246 43.7643C109.314 43.6931 110.906 43.6171 112.021 43.5364C111.557 41.8628 110.92 40.2421 110.121 38.7003L110.697 38.4083C113.581 39.6001 115.654 41.0792 116.916 42.8455C117.41 43.4403 117.777 44.1303 117.994 44.8728C118.21 45.6152 118.272 46.3943 118.176 47.1617C118.105 47.7279 117.881 48.2638 117.527 48.711C117.173 49.1581 116.704 49.4993 116.169 49.6973C115.054 50.0819 113.961 49.7377 112.889 48.6646C112.869 47.4404 112.714 46.2221 112.426 45.0321L110.526 45.666V57.2685C110.607 62.0168 110.761 66.5277 110.989 70.8011C110.551 71.3615 109.974 71.7984 109.317 72.0689C108.183 72.5706 106.956 72.8255 105.716 72.8168H105.738ZM113.273 62.3325C113.148 58.7088 112.369 55.1376 110.975 51.7913L111.686 51.5634C113.97 52.7009 115.913 54.4205 117.322 56.5491C117.774 57.1963 118.093 57.9266 118.262 58.698C118.43 59.4693 118.445 60.2665 118.304 61.0434C118.244 61.5909 118.035 62.1114 117.7 62.5484C117.365 62.9854 116.917 63.3221 116.404 63.522C115.303 63.8401 114.253 63.4436 113.252 62.3325H113.273ZM127.775 71.435C124.665 71.435 122.587 71.0361 121.527 70.2527C120.467 69.4692 119.947 67.8809 119.947 65.502V36.706C118.484 37.416 116.986 38.0507 115.458 38.6077L115.173 37.8955C120.235 34.6093 123.856 29.5153 125.298 23.6506H122.651C121.125 23.7101 119.614 23.9809 118.161 24.4554L116.667 21.521C118.802 21.7489 121.328 21.9056 124.324 21.9839H138.306L139.629 20.5594L140.199 19.9825C140.775 19.4056 141.18 19.1136 141.408 19.1136C141.792 19.1136 142.739 19.7617 144.254 21.0438C145.77 22.3258 146.531 23.1805 146.531 23.6078C146.304 24.0352 145.606 24.3201 144.461 24.5338C144.382 26.8504 144.033 29.1498 143.422 31.3855C143.026 32.7594 142.2 33.9701 141.067 34.8399C139.332 35.8106 137.359 36.2699 135.374 36.1647C135.374 34.3603 135.087 33.1519 134.513 32.5394C133.859 31.7702 132.635 31.2146 130.827 30.8656L130.884 30.1178C131.268 30.1178 131.959 30.1534 132.962 30.2317C134.456 30.3101 135.395 30.3457 135.808 30.3457C136.33 30.3984 136.855 30.2783 137.302 30.0038C137.881 29.5052 138.379 27.3922 138.797 23.6648H132.812C130.777 28.7692 126.982 32.8789 121.427 35.9938L126.608 38.0664H139.209L140.419 36.5707C140.526 36.4447 140.622 36.3087 140.704 36.1647C141.316 35.4525 141.757 35.0678 142.027 35.0678C142.411 35.0678 143.41 35.7017 145.023 36.9695C146.636 38.2373 147.44 39.0825 147.435 39.5051C146.95 40.0714 146.274 40.4391 145.535 40.5379V45.2672C145.616 49.0658 145.732 52.0786 145.884 54.3055C145.692 54.6902 145.009 55.1033 143.842 55.5449C142.843 55.9506 141.781 56.1749 140.704 56.2072H139.672V53.636H125.86V63.8852C125.83 64.1263 125.865 64.371 125.962 64.5939C126.058 64.8169 126.212 65.0099 126.408 65.153C127.145 65.4537 127.943 65.5733 128.735 65.502H135.41C137.943 65.502 139.857 65.502 141.166 65.3881C141.487 65.398 141.807 65.3397 142.104 65.2169C142.4 65.0942 142.668 64.9097 142.888 64.6758C143.429 63.8306 144.235 61.7176 145.307 58.3368H145.941L146.168 64.7898C146.833 65.0576 147.437 65.4546 147.947 65.9579C148.297 66.3485 148.482 66.8584 148.467 67.3823C148.467 68.8353 147.584 69.8515 145.82 70.4307C143.82 71.086 140.127 71.4136 134.826 71.4136L127.775 71.435ZM125.818 51.9694H129.902V39.6974H125.818V51.9694ZM135.367 51.9694H139.636V39.6974H135.367V51.9694Z" fill="white"/>
<path d="M154.97 67.9806L153.547 65.096C155.682 65.3311 158.208 65.4807 161.204 65.559H194.747L196.646 62.8525C196.839 62.6174 197.088 62.2756 197.394 61.8126C198.233 60.7015 198.774 60.1459 199.002 60.1459C199.386 60.1459 200.681 61.0576 202.887 62.881C205.093 64.7043 206.196 65.8273 206.196 66.2499C206.046 66.8624 205.484 67.1687 204.588 67.1687H163.602C160.709 67.2268 157.824 67.4981 154.97 67.9806ZM157.959 28.1804L156.536 25.246C158.671 25.4739 161.197 25.6306 164.185 25.7018H192.036L193.879 23.1093L194.398 22.397C195.316 21.0936 195.906 20.4384 196.177 20.4384C196.561 20.4384 197.828 21.3358 199.977 23.1164C202.126 24.897 203.2 26.0081 203.2 26.4283C203.043 27.048 202.488 27.3542 201.585 27.3542H166.59C163.696 27.4231 160.811 27.7088 157.959 28.2089V28.1804ZM161.702 47.1261L160.2 44.1917C162.335 44.4196 164.861 44.5763 167.857 44.6546H187.795L189.574 42.176C189.73 41.9837 189.943 41.6988 190.207 41.3142C191.054 40.196 191.587 39.6405 191.822 39.6405C192.202 39.6405 193.437 40.4951 195.529 42.2045C197.621 43.9139 198.667 44.9752 198.667 45.4025C198.511 46.015 197.956 46.3213 197.059 46.3213H170.297C167.416 46.3786 164.543 46.6476 161.702 47.1261Z" fill="white"/>
<path d="M213.076 28.0095L211.582 25.0679C213.717 25.303 216.243 25.4526 219.238 25.5309H233.854C233.885 23.1644 233.75 20.7986 233.448 18.4512C237.552 19.2917 240.12 19.9422 241.154 20.4027C241.89 20.7494 241.968 21.134 241.389 21.5566L240.407 22.1905V25.5309H251.835L253.678 23.0523L254.425 22.1335C255.194 21.0936 255.692 20.5808 255.926 20.5808C256.304 20.5808 257.535 21.4213 259.605 23.1093C261.676 24.7973 262.715 25.8585 262.715 26.2788C262.558 26.8984 262.003 27.2047 261.157 27.2047H221.686C218.8 27.2584 215.922 27.5274 213.076 28.0095ZM252.148 72.7598C251.956 70.5661 251.572 69.0917 250.995 68.3225C250.113 67.3254 248.616 66.6345 246.505 66.2499V66.1359C245.47 66.5797 244.359 66.8214 243.232 66.8482H242.193V63.8496H232.232V65.8653C232.232 66.1786 231.698 66.5775 230.623 67.0191C229.537 67.5032 228.362 67.7578 227.172 67.767C226.461 67.767 226.077 67.3823 226.077 66.6202C226.077 65.8581 226.226 64.8325 226.304 63.5647C226.347 62.9878 226.361 62.5106 226.361 62.1402V59.2913C226.396 56.384 226.224 53.4779 225.849 50.5948L232.459 53.4437H241.667L242.876 51.948C242.996 51.781 243.132 51.6259 243.282 51.4851C243.858 50.7728 244.257 50.3882 244.485 50.3882C244.869 50.3882 245.908 51.0364 247.566 52.3184C249.224 53.6004 250.07 54.4551 250.07 54.8825C249.821 55.1812 249.514 55.427 249.168 55.6056C248.822 55.7841 248.444 55.8918 248.057 55.9223V65.1317C248.057 65.2076 247.922 65.343 247.651 65.5376C249.644 65.6872 251.337 65.7655 252.717 65.7655C253.429 65.7655 253.806 65.4237 253.806 64.7328V48.629H220.896V56.6987C220.972 61.447 221.126 65.9579 221.359 70.2313C220.83 70.9752 220.084 71.5374 219.224 71.841C218.075 72.4006 216.816 72.6974 215.538 72.7099C214.542 72.7099 214.044 72.3253 214.044 71.5561C214.272 68.2323 214.426 64.8539 214.507 61.4209V55.7229C214.572 51.7614 214.325 47.8008 213.767 43.8783L221.423 46.9267H253.258L254.582 45.2601C254.685 45.0979 254.799 44.9432 254.923 44.7971C255.578 43.9495 256.033 43.5293 256.304 43.5293C256.688 43.5293 257.819 44.2582 259.698 45.7159C261.576 47.1736 262.525 48.1233 262.544 48.5649C262.268 48.899 261.927 49.1735 261.541 49.3718C261.156 49.5701 260.735 49.6882 260.303 49.7187V65.3881C260.303 67.7622 259.842 69.4502 258.922 70.4521C257.727 71.6558 255.485 72.4464 252.148 72.7598ZM223.956 45.3455C223.152 45.3455 222.747 44.9609 222.747 44.1917C222.747 43.4225 222.896 42.4823 222.974 41.2572C223.017 40.6803 223.031 40.2174 223.031 39.8755V37.1049C223.064 34.2757 222.892 31.4479 222.519 28.6434L229.705 31.6348H244.492L245.872 29.9682C246.043 29.79 246.198 29.5969 246.335 29.3913C246.989 28.622 247.43 28.2374 247.658 28.2374C248.042 28.2374 249.164 28.9497 251.024 30.3742C252.888 31.7986 253.813 32.7174 253.813 33.1377C253.25 33.816 252.447 34.25 251.572 34.3485V37.347C251.572 37.8029 251.572 38.4011 251.629 39.1276C251.707 40.8584 251.785 42.1475 251.856 42.988C251.662 43.3394 250.915 43.724 249.615 44.1418C248.504 44.5291 247.34 44.7429 246.164 44.7757H245.011V42.0692H229.421V43.337C229.421 43.6433 228.823 44.0492 227.635 44.5478C226.474 45.058 225.223 45.3293 223.956 45.3455ZM229.421 40.3598H245.011V33.2374H229.421V40.3598ZM232.267 62.2471H242.229V55.0748H232.267V62.2471Z" fill="white"/>
</svg>
