<svg width="725" height="66" viewBox="0 0 725 66" fill="none" xmlns="http://www.w3.org/2000/svg">
<g clip-path="url(#clip0_1_56)">
<path d="M9.69002 63.9573C9.16882 63.9816 8.65311 63.8418 8.21525 63.5575C8.05086 63.4646 7.91283 63.3312 7.81416 63.17C7.7155 63.0088 7.65949 62.8251 7.6514 62.6361C8.05045 56.963 8.29333 51.2406 8.38008 45.469V28.9538C6.13461 31.7278 3.61791 34.2699 0.867505 36.5421L0 36.0118C3.86725 29.6496 6.963 22.8476 9.22158 15.7503C10.0032 13.3482 10.6405 10.9013 11.1301 8.42275C11.636 6.13544 11.9465 3.8091 12.0583 1.46897C15.2955 2.36056 18.4643 3.48478 21.5401 4.83287C22.4683 5.31963 22.5551 5.70209 21.809 6.0237L20.5512 6.54524C18.8718 11.3612 16.7337 16.004 14.1663 20.4093C15.219 21.0337 16.1554 21.8366 16.9337 22.7823C17.1534 23.1821 16.9973 23.5124 16.4652 23.7732L15.4849 24.2339V45.9644C15.5717 51.4174 15.7452 56.5863 16.0055 61.4714C15.393 62.1939 14.5995 62.7399 13.7066 63.0533C12.444 63.6283 11.0767 63.936 9.69002 63.9573ZM54.8784 60.5847C53.095 59.914 51.5102 58.8016 50.2719 57.3512C44.6505 51.0117 41.0503 41.5314 39.4715 28.9103H29.9723V45.7384C31.9068 45.3821 34.9778 44.8171 39.1939 44C39.9833 43.8696 40.5819 43.7653 40.9289 43.6697L40.9983 44.4694C36.4294 47.4595 30.302 50.9567 22.6159 54.9609C22.4796 55.3552 22.2509 55.7109 21.949 55.9983C21.6471 56.2857 21.2808 56.4963 20.8809 56.6124L16.9944 47.8333L18.2436 47.6333C20.048 47.3726 21.5141 47.1466 22.6592 46.9727V20.8961C22.7255 16.369 22.4354 11.8437 21.7917 7.36231L31.4123 10.6653C39.3587 7.76793 45.6163 4.9082 50.1851 2.08613L57.7584 9.34413C56.9661 10.0511 55.5839 10.0511 53.6118 9.34413C51.1915 9.96128 48.4935 10.5263 45.5093 11.0826C45.2723 16.3905 45.4493 21.7089 46.0385 26.9893H49.4565L51.3042 24.1557C51.4343 23.9818 51.6339 23.695 51.8942 23.2864C52.8224 21.9652 53.4123 21.3046 53.6292 21.3046C54.0716 21.3046 55.3642 22.2781 57.4202 24.2078C59.4762 26.1375 60.5518 27.3544 60.5518 27.8412C60.413 28.5452 59.8492 28.9016 58.8168 28.9016H46.238C47.5566 38.7064 50.3673 45.7442 54.6701 50.015C55.3294 50.7712 55.9454 50.6756 56.5092 49.7542C57.7054 47.4854 58.7207 45.1254 59.5455 42.6962L60.2048 42.8265L59.0858 52.9877C59.7893 54.3472 60.3197 55.7898 60.6646 57.2817C60.7745 57.7623 60.7596 58.2632 60.6214 58.7364C60.4832 59.2096 60.2263 59.6395 59.8752 59.985C58.652 61.141 56.9344 61.3323 54.8697 60.5847H54.8784ZM21.8351 61.9755L20.1001 58.5855C22.5117 58.8463 25.4323 59.0202 28.8619 59.1071H37.0945L38.9423 56.4038C39.1158 56.1865 39.3587 55.8562 39.6623 55.4129C40.4604 54.2655 40.9809 53.6744 41.2499 53.6744C41.6836 53.6744 42.9675 54.5987 45.1016 56.4472C47.2356 58.2958 48.2998 59.4548 48.294 59.9241C48.1205 60.6282 47.5219 60.9759 46.559 60.9759H29.5819C26.9735 61.0579 24.3791 61.3927 21.8351 61.9755ZM29.9983 26.9893H39.2893C38.8498 22.8634 38.5866 17.9378 38.4999 12.2126C35.8627 12.6124 33.0288 12.9427 29.9983 13.2035V26.9893Z" fill="#158379"/>
<path d="M67.3878 36.2292L66.7979 35.6381C70.2582 31.3051 73.1719 26.561 75.4729 21.5132C76.5713 19.2378 77.4851 16.8775 78.2056 14.4551C78.9486 12.1899 79.4886 9.86274 79.8192 7.50137L85.6228 10.2134C87.1256 10.6609 88.5634 11.3038 89.8996 12.1256C90.2986 12.5168 90.1164 12.8297 89.3703 13.047L88.1211 13.4469C82.9971 23.6225 76.086 31.2166 67.3878 36.2292ZM119.134 63.0273C117.532 64.2152 115.656 63.9255 113.504 62.158C112.79 58.7023 111.638 55.352 110.078 52.1881C102.825 54.6509 91.6924 57.7308 76.6787 61.4279C76.2458 62.1767 75.5348 62.7236 74.7009 62.949L70.8838 52.7791C73.122 52.7328 77.072 52.5589 82.734 52.2576C84.469 47.4595 86.1172 42.024 87.6787 35.951C88.7778 31.7211 89.4177 27.3846 89.5872 23.017C94.6766 24.2976 97.8835 25.2654 99.2079 25.9202C100.171 26.3548 100.284 26.7894 99.5375 27.1023L98.349 27.7021C94.9291 36.2748 90.5645 44.4381 85.3365 52.0403C91.6635 51.681 99.6098 51.1305 109.175 50.3888C106.958 46.2495 104.343 42.3368 101.368 38.7064L102.027 38.3066C108.134 40.8157 112.88 43.9305 116.263 47.6507C119.074 50.7278 120.655 53.8512 121.008 57.0209C121.364 59.8372 120.731 61.8451 119.134 63.0273ZM120.679 35.3773C116.238 32.1526 112.479 28.0787 109.618 23.3907C106.56 18.4051 104.396 12.9216 103.224 7.18845H98.0888C94.9489 7.24811 91.8188 7.55913 88.7284 8.11853L86.9934 4.81548C89.405 5.07625 92.3286 5.25879 95.7552 5.34571H101.489L103.858 1.4516L110.243 6.00631C109.496 6.88712 107.698 7.43473 104.847 7.64914C106.766 12.1526 109.668 16.1682 113.34 19.401C117.368 23.0858 122.086 25.9338 127.22 27.7803L127.02 28.5105C125.488 29.0643 124.119 29.9936 123.038 31.2137C121.926 32.3894 121.117 33.8183 120.679 35.3773Z" fill="#158379"/>
<path d="M133.787 17.819L132.052 14.5855C134.463 14.8463 137.384 15.023 140.813 15.1158H151.354L152.863 12.8645C152.958 12.7341 153.089 12.5342 153.262 12.2734C154.008 11.1695 154.537 10.6219 154.841 10.6219C155.281 10.6219 156.368 11.381 158.103 12.8992C159.838 14.4175 160.705 15.42 160.705 15.9067C160.575 16.5674 160.003 16.889 158.97 16.889H141.62C138.986 16.9607 136.364 17.272 133.787 17.819ZM136.753 63.6879C136.574 63.7142 136.391 63.6981 136.219 63.641C136.047 63.5839 135.891 63.4873 135.763 63.359C135.635 63.2307 135.539 63.0741 135.482 62.9018C135.425 62.7295 135.409 62.5462 135.435 62.3667C135.608 60.4804 135.747 58.0814 135.834 55.1782V50.8842C135.885 46.5247 135.621 42.1672 135.044 37.8459L142.679 41.0794H148.812L150.261 39.2975C150.391 39.1584 150.59 38.9411 150.85 38.6369C151.466 37.8894 151.909 37.5156 152.169 37.5156C152.603 37.5156 153.783 38.2631 155.691 39.7582C157.6 41.2533 158.554 42.2442 158.554 42.7309C157.95 43.4423 157.108 43.9089 156.186 44.0435V49.1284C156.272 53.3123 156.405 56.5921 156.585 58.968C155.958 59.6486 155.161 60.1496 154.277 60.4196C153.113 60.9382 151.863 61.233 150.59 61.2888C149.619 61.2888 149.141 60.8542 149.141 59.9676C149.141 59.7937 149.228 59.5504 149.272 59.2461C149.315 58.9419 149.358 58.8289 149.402 58.6551V57.3339H142.462V58.7854C142.507 59.2447 142.527 59.7061 142.522 60.1675C142.566 60.6543 142.609 61.0367 142.653 61.228C142.566 61.7495 141.906 62.3058 140.683 62.8708C139.446 63.4192 138.106 63.6977 136.753 63.6879ZM136.953 26.4678L135.218 23.0952C137.635 23.3676 140.527 23.5443 143.893 23.6254H148.04L149.488 21.5132L150.087 20.7222C150.694 19.8009 151.137 19.3315 151.397 19.3315C151.836 19.3315 152.88 20.0703 154.529 21.548C156.177 23.0257 157.001 24.005 157.001 24.486C156.871 25.19 156.316 25.5377 155.353 25.5377H146.79C143.493 25.6027 140.205 25.9135 136.953 26.4678ZM136.953 34.9775L135.218 31.6744C137.595 31.9468 140.452 32.1235 143.789 32.2047H147.936L149.384 30.0924C149.566 29.8934 149.72 29.6713 149.844 29.4318C150.59 28.4235 151.093 27.9194 151.362 27.9194C151.796 27.9194 152.846 28.6495 154.494 30.1272C156.142 31.6049 156.958 32.5784 156.958 33.0652C156.828 33.7258 156.298 34.0561 155.379 34.0561H146.817C143.51 34.1166 140.213 34.4246 136.953 34.9775ZM137.213 9.57013L135.565 6.26708C137.899 6.52785 140.666 6.71038 143.867 6.79731H147.884L149.402 4.55471L149.931 3.82457C150.677 2.81627 151.18 2.30343 151.44 2.30343C151.883 2.30343 152.95 3.06834 154.641 4.58079C156.333 6.09323 157.175 7.10154 157.175 7.5883C157.044 8.29237 156.489 8.64005 155.526 8.64005H147.094C143.782 8.70322 140.479 9.01411 137.213 9.57013ZM142.488 55.3694H149.428V42.9395H142.488V55.3694ZM153.817 63.8878L153.488 63.0186C159.794 60.1674 165.359 55.8993 169.753 50.5452C166.58 45.4184 164.35 39.763 163.169 33.8475H161.651C160.83 33.9238 160.05 34.2447 159.413 34.7689L157.678 31.5354C160.089 31.8077 163.01 31.9845 166.439 32.0656H177.986L179.955 29.9534C180.129 29.7795 180.354 29.5361 180.615 29.2232C181.543 28.3019 182.133 27.8412 182.393 27.8412C182.832 27.8412 184.041 28.7654 186.019 30.614C187.997 32.4625 188.986 33.6215 188.986 34.0909C188.63 34.6646 187.771 35.0209 186.383 35.1513C184.461 40.7003 181.463 45.8137 177.561 50.1975C182.383 52.9971 187.601 55.0485 193.037 56.2821L192.977 57.0035C189.726 57.6642 187.552 59.9531 186.453 63.8704C181.366 61.7182 176.771 58.5507 172.946 54.561C167.88 58.7101 161.503 61.819 153.817 63.8878ZM157.834 30.5531L157.305 29.8925C159.489 27.2346 161.003 24.0894 161.72 20.7222C162.297 17.7212 162.561 14.6685 162.51 11.6128V7.5883C162.526 6.13525 162.439 4.68287 162.249 3.24219L170.413 6.53654H175.158L176.676 4.69379C176.88 4.43614 177.1 4.19223 177.335 3.96365C177.995 3.17266 178.454 2.77281 178.715 2.77281C179.157 2.77281 180.241 3.52904 181.977 5.0241C183.712 6.51916 184.579 7.51006 184.579 7.98814C184.043 8.52213 183.349 8.86948 182.601 8.97905V19.149C182.569 19.3904 182.628 19.6351 182.766 19.8356C182.991 19.9766 183.258 20.035 183.521 20.0008H186.418C186.625 19.9824 186.824 19.9123 186.997 19.7969C187.17 19.6815 187.311 19.5244 187.407 19.3402C187.719 18.7317 188.509 16.3066 189.784 12.0822H190.443L190.634 19.6096C191.216 19.8962 191.714 20.3271 192.083 20.8613C192.33 21.375 192.444 21.9433 192.413 22.5128C192.413 25.2828 189.692 26.6677 184.249 26.6677H181.152C178.868 26.6677 177.396 26.2505 176.737 25.416C176.164 24.712 175.869 23.1995 175.869 20.8613V8.38798H169.311V11.6476C169.311 20.56 165.485 26.8618 157.834 30.5531ZM172.72 46.5294C175.223 42.6174 177.11 38.343 178.316 33.8562H164.357C166.028 38.7224 168.906 43.0834 172.72 46.5294Z" fill="#158379"/>
<path d="M203.282 63.3576L198.806 54.0569C200.472 53.8309 203.092 53.3963 206.614 52.7357V16.3674C206.68 11.8403 206.39 7.31506 205.746 2.83366C210.535 3.84775 213.522 4.63874 214.708 5.20663C215.575 5.64993 215.67 6.07585 214.968 6.52785L213.779 7.31884V25.4073H218.854L220.763 22.1043L221.361 21.1134C222.281 19.5314 222.871 18.7404 223.14 18.7404C223.409 18.7404 224.823 19.8704 227.026 22.1391C229.23 24.4077 230.314 25.7811 230.314 26.2679C230.184 26.9719 229.594 27.3196 228.579 27.3196H213.831V51.3449C214.76 51.1711 216.182 50.8842 218.117 50.4757C223.252 49.4616 227.162 48.6677 229.845 48.094L229.976 48.885C221.876 53.5803 213.517 57.8116 204.939 61.5583C204.836 61.9735 204.63 62.356 204.341 62.6705C204.051 62.985 203.687 63.2213 203.282 63.3576ZM239.648 62.1754C236.479 62.1754 234.316 61.6568 233.159 60.6195C232.003 59.5822 231.424 57.6352 231.424 54.7783V16.3674C231.491 11.8403 231.2 7.31506 230.557 2.83366C235.305 3.93467 238.269 4.77202 239.449 5.34571C240.316 5.78032 240.438 6.21493 239.778 6.66693L238.659 7.38838V27.7803C242.992 24.0557 246.981 19.948 250.579 15.5069L257.831 22.7041C257.259 23.3647 256.287 23.4255 254.934 22.904C249.867 26.012 244.388 28.3881 238.659 29.9621V52.501C238.629 52.806 238.663 53.1141 238.76 53.4048C238.858 53.6955 239.015 53.9622 239.223 54.1873C239.838 54.5849 240.569 54.7597 241.297 54.6827H246.042C247.707 54.6827 249.069 54.6393 250.119 54.5523C250.468 54.5461 250.81 54.4521 251.113 54.2789C251.416 54.1058 251.671 53.8591 251.854 53.5614C252.56 52.3677 253.525 49.0444 254.752 43.5915H255.472L255.801 54.0221C257.536 54.8971 258.404 55.9982 258.404 57.3252C258.419 58.1619 258.155 58.9798 257.654 59.649C257.153 60.3183 256.443 60.8006 255.636 61.0194C253.699 61.8132 250.275 62.2102 245.365 62.2102L239.648 62.1754Z" fill="#158379"/>
<path d="M277.792 66V0H280.395V66H277.792Z" fill="#158379"/>
<path d="M308.754 63.9573C308.23 63.9805 307.712 63.8409 307.27 63.5575C307.107 63.4633 306.97 63.3297 306.871 63.1687C306.773 63.0078 306.716 62.8247 306.706 62.6361C307.105 56.963 307.348 51.2406 307.435 45.469V28.9538C305.19 31.7278 302.673 34.2699 299.923 36.5421L299.055 36.0118C302.926 29.6514 306.022 22.849 308.277 15.7503C309.057 13.3472 309.698 10.9005 310.194 8.42275C310.693 6.13455 311.001 3.80852 311.113 1.46897C314.35 2.36056 317.519 3.48478 320.595 4.83287C321.523 5.31963 321.61 5.70209 320.864 6.0237L319.606 6.54524C317.927 11.3612 315.789 16.004 313.221 20.4093C314.274 21.0337 315.21 21.8366 315.989 22.7823C316.206 23.1821 316.049 23.5124 315.529 23.7732L314.54 24.2339V45.9644C314.627 51.4174 314.8 56.5863 315.06 61.4714C314.448 62.1939 313.654 62.7399 312.762 63.0533C311.502 63.6283 310.138 63.9361 308.754 63.9573ZM353.942 60.5847C352.154 59.918 350.566 58.8051 349.327 57.3512C343.706 51.0117 340.105 41.5314 338.526 28.9103H329.036V45.7384C330.971 45.3821 334.042 44.8171 338.258 44C339.056 43.8696 339.646 43.7653 339.993 43.6697L340.062 44.4694C335.493 47.4595 329.366 50.9567 321.68 54.9609C321.543 55.3552 321.315 55.7109 321.013 55.9983C320.711 56.2857 320.345 56.4963 319.945 56.6124L316.058 47.8333L317.307 47.6333C319.112 47.3726 320.578 47.1466 321.723 46.9727V20.8961C321.789 16.369 321.499 11.8437 320.855 7.36231L330.476 10.6653C338.422 7.76793 344.68 4.9082 349.249 2.08613L356.822 9.34413C356.03 10.0511 354.648 10.0511 352.676 9.34413C350.255 9.96128 347.557 10.5263 344.573 11.0826C344.34 16.3906 344.517 21.7086 345.102 26.9893H348.529L350.368 24.1557C350.498 23.9818 350.698 23.695 350.958 23.2864C351.886 21.9652 352.476 21.3046 352.745 21.3046C353.179 21.3046 354.48 22.2781 356.527 24.2078C358.575 26.1375 359.659 27.3544 359.659 27.8412C359.529 28.5452 358.956 28.9016 357.924 28.9016H345.414C346.733 38.7064 349.544 45.7442 353.847 50.015C354.506 50.7712 355.122 50.6756 355.694 49.7542C356.883 47.4831 357.896 45.1234 358.722 42.6962L359.381 42.8265L358.262 52.9877C358.966 54.3472 359.496 55.7898 359.841 57.2817C359.951 57.7623 359.936 58.2632 359.798 58.7364C359.66 59.2096 359.403 59.6395 359.052 59.985C357.716 61.141 356.007 61.3323 353.942 60.5847ZM320.873 61.9755L319.138 58.6116C321.558 58.8724 324.473 59.0462 327.9 59.1331H336.132L337.98 56.4299C338.153 56.2155 338.396 55.8852 338.709 55.439C339.498 54.2916 340.019 53.7005 340.288 53.7005C340.721 53.7005 342.005 54.6248 344.139 56.4733C346.273 58.3219 347.337 59.4808 347.332 59.9502C347.158 60.6543 346.568 61.002 345.553 61.002H328.646C326.029 61.0738 323.426 61.3998 320.873 61.9755ZM329.036 26.9893H338.327C337.887 22.8634 337.624 17.9378 337.538 12.2126C334.935 12.6124 332.072 12.9427 329.036 13.2035V26.9893Z" fill="#158379"/>
<path d="M369.748 22.4346C369.562 20.7408 369.096 19.0898 368.369 17.5496C367.663 16.0288 366.79 14.5915 365.766 13.2643L366.425 12.8645C368.066 13.2191 369.656 13.7737 371.162 14.516C372.377 10.2362 373.085 5.8278 373.27 1.38206C377.752 2.87712 380.563 3.97814 381.702 4.6851C382.57 5.16318 382.57 5.55433 381.841 5.86725L380.653 6.33662C378.336 9.66703 375.723 12.78 372.845 15.6373C374.58 16.9585 375.448 18.4362 375.448 20.0616C375.495 20.6925 375.356 21.3234 375.047 21.8754C374.738 22.4274 374.274 22.8759 373.713 23.1648C372.388 23.7848 371.067 23.5414 369.748 22.4346ZM376.142 64.0182C374.996 64.0182 374.406 63.5749 374.406 62.6969C374.667 58.6406 374.843 54.506 374.936 50.2932V43.3394C374.725 43.4221 374.502 43.4691 374.276 43.4785C372.472 50.1193 369.991 55.1782 366.833 58.6551L365.844 58.1248C366.278 56.5863 366.66 55.1608 366.963 53.8396C367.427 51.4633 367.734 49.0591 367.883 46.6424C368.028 44.377 367.985 42.1033 367.753 39.8451L374.936 41.5836V35.0557L369.991 36.7072C369.852 37.0721 369.617 37.3929 369.312 37.636C369.007 37.8791 368.642 38.0357 368.256 38.0893L365.879 31.0225C366.408 31.0225 367.406 31.0225 368.88 30.9269C370.355 30.8313 371.483 30.8313 372.351 30.8313C373.224 29.0233 374.54 26.1404 376.298 22.1825C378.067 18.1065 379.415 13.86 380.323 9.50927C383.076 10.4152 385.761 11.5191 388.356 12.8123C389.145 13.3339 389.163 13.7337 388.425 13.9945L387.168 14.3943C383.387 20.1212 379.204 25.5705 374.649 30.7009C376.28 30.6053 378.866 30.4575 382.457 30.2315C383.021 30.1881 383.437 30.1707 383.706 30.1707C383.102 28.3712 382.398 26.6068 381.598 24.8858L381.529 24.7554L382.257 24.4251C386.306 26.2331 388.908 28.5221 390.065 31.292V20.8613C390.131 16.3342 389.841 11.8089 389.197 7.32753L397.1 10.561H401.117C401.826 7.59083 402.29 4.5674 402.505 1.52114C405.361 2.02817 408.179 2.73394 410.937 3.63334C411.805 4.03318 411.805 4.42433 410.998 4.82417L409.749 5.41525C408.881 6.28447 407.337 7.75345 405.003 9.90912C404.656 10.2133 404.414 10.4307 404.283 10.561H416.073L417.522 8.64875C417.716 8.44395 417.893 8.22295 418.051 7.98814C418.71 7.11891 419.17 6.67562 419.43 6.67562C419.875 6.67562 420.997 7.38838 422.796 8.81391C424.595 10.2394 425.494 11.1985 425.494 11.691C424.848 12.4136 423.951 12.8615 422.987 12.9427V22.0782C423.079 27.5369 423.256 32.7059 423.516 37.5851C422.966 38.1711 422.289 38.623 421.538 38.9064C420.238 39.4071 418.854 39.6549 417.461 39.6365H416.402V36.403H396.45V39.3062C396.45 39.6104 395.99 39.9668 395.07 40.358C393.827 40.8173 392.509 41.0413 391.184 41.0186C390.256 41.0186 389.796 40.584 389.796 39.6973C389.796 39.3931 389.883 38.9933 389.935 38.5152C389.987 38.0371 390.022 37.7851 390.065 37.5243V35.7859C389.855 36.2233 389.541 36.6026 389.151 36.8905C388.761 37.1784 388.306 37.3661 387.827 37.4374C387.249 37.4811 386.668 37.3901 386.131 37.1714C385.593 36.9527 385.114 36.6124 384.73 36.177C384.721 34.7483 384.52 33.3273 384.131 31.9526L381.529 32.874V46.2774C381.616 51.7361 381.792 56.905 382.058 61.7843C381.561 62.4286 380.902 62.9295 380.149 63.2359C378.887 63.7876 377.519 64.0547 376.142 64.0182ZM384.504 50.2236C384.584 46.4933 383.819 42.7933 382.266 39.4018L383.056 39.0715C385.504 40.2091 387.602 41.9867 389.128 44.2173C389.599 44.8912 389.929 45.6539 390.097 46.4592C390.266 47.2645 390.27 48.0956 390.108 48.9024C390.032 49.499 389.788 50.0614 389.404 50.5233C389.02 50.9853 388.512 51.3277 387.94 51.5101C386.771 51.8462 385.626 51.4174 384.504 50.2236ZM389.119 58.9158C388.576 58.8212 388.069 58.5815 387.651 58.2219C387.232 57.8624 386.919 57.3965 386.742 56.8732C386.563 56.4023 386.488 55.898 386.523 55.3952C386.557 54.8924 386.7 54.4031 386.942 53.9613C387.384 53.0783 388.099 52.3619 388.981 51.9186C390.17 51.1197 391.162 50.0582 391.878 48.8155C392.749 47.5058 393.208 45.9648 393.197 44.3911H394.064C395.151 47.1812 395.492 50.2076 395.053 53.1703C394.95 54.159 394.652 55.1173 394.177 55.9901C393.702 56.8629 393.059 57.6327 392.286 58.2552C391.84 58.593 391.323 58.8242 390.774 58.9311C390.225 59.0381 389.659 59.018 389.119 58.8724V58.9158ZM396.424 25.8854C397.573 24.5399 398.587 23.0842 399.451 21.5393C398.888 21.1395 398.246 20.7483 397.543 20.3485L398.072 19.627C398.313 19.6827 398.556 19.7262 398.801 19.7574C399.451 19.8878 399.937 19.9747 400.25 20.0182C401.522 17.594 402.559 15.0529 403.347 12.4299H396.406L396.424 25.8854ZM396.424 34.4646H416.376V19.6879H415.986C415.813 19.7309 415.635 19.7542 415.457 19.7574C414.401 21.6942 413.167 23.5276 411.77 25.2335C412.86 26.166 413.641 27.4091 414.008 28.7973C414.16 29.2155 414.187 29.6687 414.087 30.1022C413.987 30.5356 413.764 30.9307 413.444 31.2398C413.07 31.5294 412.622 31.7082 412.151 31.7558C411.68 31.8034 411.206 31.718 410.781 31.5093C410.043 30.4809 409.228 29.5104 408.343 28.6061C405.119 31.0607 401.482 32.9155 397.604 34.0822L396.875 33.213C400.199 31.4205 403.145 29.0001 405.55 26.0853C404.361 25.077 403.173 24.147 401.993 23.3125C400.362 24.802 398.573 26.1078 396.658 27.2066L396.389 26.9459L396.424 34.4646ZM403.537 62.5231C401.039 62.5231 399.394 62.1464 398.601 61.3931C397.901 60.6861 397.549 59.2374 397.543 57.047V49.789C397.579 47.2718 397.426 44.7555 397.083 42.2616L404.986 43.2525C403.629 41.5869 402.005 40.1592 400.18 39.028L400.579 38.1067C404.57 38.1067 407.664 38.7673 409.861 40.0885C411.666 41.1374 412.655 42.4557 412.828 44.0435C412.941 44.6912 412.868 45.3575 412.617 45.9652C412.367 46.5729 411.95 47.0971 411.414 47.4769C410.884 47.8871 410.235 48.1154 409.565 48.1279C408.895 48.1404 408.238 47.9366 407.693 47.5464C407.137 46.1874 406.383 44.9189 405.455 43.7827C405.308 44.1344 405.061 44.435 404.745 44.6468C404.428 44.8586 404.057 44.9722 403.676 44.9735V55.5346C403.654 55.6807 403.67 55.83 403.721 55.9684C403.773 56.1068 403.859 56.2297 403.971 56.3256C404.376 56.4974 404.817 56.5661 405.255 56.5255H408.725C410.46 56.5255 411.536 56.5255 411.891 56.4559C412.126 56.4661 412.36 56.4238 412.576 56.3321C412.792 56.2404 412.985 56.1016 413.141 55.9257C413.964 54.369 414.627 52.7322 415.118 51.0407C415.148 50.9062 415.192 50.7751 415.249 50.6495H415.908L416.168 56.0561C416.738 56.2127 417.24 56.5529 417.598 57.0243C417.956 57.4956 418.148 58.0718 418.146 58.6638C418.148 59.3252 417.939 59.9699 417.548 60.5033C417.158 61.0368 416.608 61.4309 415.977 61.6278C414.433 62.2421 411.796 62.5521 408.066 62.5579L403.537 62.5231ZM407.953 22.6519C408.309 22.0348 408.82 21.0699 409.402 19.7487C409.493 19.5199 409.604 19.299 409.731 19.0881H405.784C405.559 19.401 405.229 19.8182 404.795 20.3398C404.523 20.6527 404.324 20.8961 404.197 21.0699C405.602 21.5828 406.851 22.0782 407.953 22.6345V22.6519ZM416.385 17.5061V12.4212H404.726C407.323 13.1687 408.904 13.7859 409.471 14.2726C409.948 14.6203 409.844 14.9332 409.141 15.194L407.953 15.5938C407.849 15.7584 407.762 15.9332 407.693 16.1154L407.033 17.2367H410.061L412.664 14.403L416.385 17.5061ZM419.612 57.1687C419.621 54.7876 419.173 52.4269 418.294 50.2149C417.487 48.0127 416.355 45.9442 414.936 44.0782L415.526 43.6784C419.309 44.9996 422.099 46.7815 423.898 49.0241C424.582 49.7819 425.11 50.6686 425.449 51.6326C425.789 52.5966 425.934 53.6187 425.876 54.6393C425.888 55.3716 425.696 56.0928 425.322 56.7222C424.948 57.3516 424.407 57.8644 423.759 58.2031C422.406 58.8289 421.018 58.4725 419.612 57.1513V57.1687Z" fill="#158379"/>
<path d="M439.773 63.9573C439.249 63.9805 438.731 63.8409 438.29 63.5575C438.126 63.4633 437.989 63.3297 437.891 63.1687C437.792 63.0078 437.735 62.8247 437.726 62.6361C438.125 56.963 438.368 51.2406 438.454 45.469V30.162C436.494 32.7266 434.336 35.133 432 37.3591L431.133 36.8289C434.585 30.1074 437.343 23.0504 439.365 15.7677C440.805 11.139 441.679 6.3522 441.968 1.51244C447.063 3.0075 450.27 4.10852 451.588 4.81548C452.551 5.30225 452.664 5.6847 451.918 6.00631L450.669 6.52785C448.965 11.2977 446.936 15.9445 444.596 20.4354C445.572 21.0341 446.424 21.8162 447.103 22.7388C447.323 23.1387 447.167 23.469 446.635 23.7297L445.715 24.1904V45.8427C445.802 51.3015 445.979 56.4704 446.245 61.3497C445.567 62.0778 444.734 62.6425 443.807 63.0012C442.547 63.6075 441.171 63.9336 439.773 63.9573ZM447.875 63.8878L447.546 63.1576C449.451 62.1654 451.299 61.0655 453.081 59.8633C457.331 56.9659 460.359 53.8628 462.163 50.5539L466.978 53.9178C469.043 54.9348 470.222 55.6563 470.535 56.1691C470.847 56.6819 470.535 56.8906 469.546 57.0383L467.811 57.2382C465.019 58.9166 462.033 60.2477 458.919 61.2019C455.309 62.3685 451.618 63.2662 447.875 63.8878ZM454.529 54.3264C454.097 54.3462 453.673 54.2036 453.341 53.9265C453.198 53.819 453.083 53.6798 453.003 53.52C452.923 53.3601 452.881 53.1839 452.881 53.0051C452.881 52.7009 452.881 52.2837 452.942 51.7535C453.254 46.825 453.445 41.8965 453.54 36.9767V28.2845C452.971 28.4137 452.389 28.4779 451.805 28.4757H450.886V19.8965C450.939 16.9174 450.762 13.9387 450.357 10.987L458.259 14.3508H461.73V9.13552H458.259C456.168 9.19519 454.092 9.50449 452.074 10.0569L450.426 6.693C452.838 6.95377 455.758 7.12761 459.188 7.21453H479.938L481.847 4.60686L482.506 3.73764C483.426 2.54681 484.016 1.9992 484.241 1.9992C484.675 1.9992 485.982 2.90029 488.162 4.70248C490.331 6.51046 491.424 7.64914 491.424 8.17937C491.242 8.88344 490.652 9.23982 489.637 9.23982H477.848V14.4551H481.318L482.767 12.7167C482.897 12.5863 483.096 12.369 483.356 12.0561C483.972 11.3086 484.415 10.9348 484.675 10.9348C485.12 10.9348 486.306 11.6823 488.232 13.1774C490.158 14.6725 491.132 15.6112 491.155 15.9937C490.914 16.2944 490.614 16.5432 490.274 16.7254C489.934 16.9076 489.561 17.0194 489.177 17.0541V25.7463C489.177 25.9636 488.518 26.2766 487.33 26.6677C486.21 27.0747 485.045 27.3404 483.86 27.4587C485.35 28.4374 486.718 29.59 487.937 30.8921C488.293 31.4224 488.162 31.8222 487.546 32.083L486.427 32.5436V38.8803C486.56 44.2057 486.714 48.2998 486.887 51.1624C486.182 51.8434 485.321 52.3417 484.38 52.614C483.126 53.1366 481.79 53.431 480.433 53.4832H479.175V50.6495H460.602V52.0316C460.602 52.4315 459.969 52.9008 458.693 53.4224C457.383 54.0085 455.964 54.3135 454.529 54.3177V54.3264ZM460.914 29.6405H478.568L481.864 25.9463V25.6768H457.817V26.2766C457.817 26.5808 457.201 26.998 455.978 27.5282L460.914 29.6405ZM457.817 23.7645H461.704V16.1762H457.817V23.7645ZM460.584 35.9336H479.158V31.518H460.584V35.9336ZM460.584 42.3398H479.158V37.7242H460.584V42.3398ZM460.584 48.8068H479.158V44.1912H460.584V48.8068ZM467.828 14.3508H471.784V9.13552H467.828V14.3508ZM467.828 23.7906H471.784V16.2023H467.828V23.7906ZM483.348 62.5057C480.797 58.8028 476.954 55.8765 471.819 53.7266L472.018 52.8574C476.508 52.9853 480.96 53.7162 485.256 55.0304C487.98 56.004 489.759 57.2151 490.591 58.6638C490.967 59.1683 491.165 59.7834 491.154 60.4126C491.143 61.0418 490.924 61.6496 490.531 62.1407C490.155 62.6534 489.669 63.0756 489.109 63.3763C488.549 63.6771 487.929 63.8488 487.295 63.8791C486.576 63.9788 485.843 63.9063 485.157 63.6676C484.471 63.4289 483.851 63.0307 483.348 62.5057ZM477.943 23.7558H481.899V16.1675H477.943V23.7558Z" fill="#158379"/>
<path d="M510.978 66V0H513.58V66H510.978Z" fill="#158379"/>
<path d="M541.939 63.9573C541.415 63.9805 540.897 63.8409 540.456 63.5575C540.293 63.4629 540.158 63.3289 540.06 63.1679C539.963 63.0069 539.908 62.824 539.9 62.6361C540.294 56.963 540.534 51.2406 540.62 45.469V28.9538C538.378 31.7276 535.864 34.2697 533.117 36.5421L532.249 36.0118C536.119 29.6359 539.215 22.8192 541.471 15.7068C542.248 13.3035 542.885 10.8569 543.379 8.3793C543.883 6.09186 544.19 3.76547 544.299 1.42552C547.539 2.31608 550.711 3.4403 553.789 4.78941C554.709 5.27617 554.795 5.65862 554.049 5.98024L552.8 6.50177C551.121 11.3177 548.983 15.9605 546.415 20.3659C547.468 20.9869 548.402 21.7904 549.174 22.7388C549.4 23.1387 549.243 23.469 548.714 23.7297L547.725 24.1904V45.921C547.812 51.3739 547.988 56.5429 548.254 61.4279C547.638 62.1501 546.842 62.696 545.947 63.0099C544.691 63.6006 543.326 63.9232 541.939 63.9573ZM587.127 60.5847C585.342 59.9178 583.756 58.8047 582.521 57.3512C576.899 51.0117 573.296 41.5314 571.712 28.9103H562.23V45.7384C564.165 45.3821 567.236 44.8171 571.452 44C572.241 43.8696 572.831 43.7653 573.187 43.6697L573.256 44.4694C568.687 47.4595 562.56 50.9567 554.873 54.9609C554.737 55.3552 554.509 55.7109 554.207 55.9983C553.905 56.2857 553.538 56.4963 553.138 56.6124L549.252 47.8333L550.501 47.6333L554.917 46.9727V20.8961C554.983 16.369 554.693 11.8437 554.049 7.36231L563.661 10.6653C571.613 7.76793 577.874 4.9082 582.443 2.08613L590.016 9.34413C589.23 10.0511 587.845 10.0511 585.861 9.34413C583.449 9.96128 580.751 10.5263 577.758 11.0826C577.526 16.3906 577.703 21.7086 578.287 26.9893H581.757L583.605 24.1557C583.735 23.9818 583.935 23.695 584.195 23.2864C585.115 21.9652 585.713 21.3046 585.93 21.3046C586.373 21.3046 587.665 22.2781 589.721 24.2078C591.777 26.1375 592.844 27.3544 592.844 27.8412C592.714 28.5452 592.142 28.9016 591.109 28.9016H578.53C579.849 38.7064 582.66 45.7442 586.963 50.015C587.622 50.7712 588.229 50.6756 588.802 49.7542C589.994 47.4848 591.007 45.1248 591.829 42.6962L592.489 42.8265L591.37 52.9877C592.075 54.3473 592.608 55.7898 592.957 57.2817C593.066 57.7631 593.05 58.2644 592.91 58.7376C592.77 59.2109 592.512 59.6404 592.159 59.985C590.918 61.141 589.183 61.3323 587.127 60.5847ZM554.058 61.9755L552.323 58.6116C554.735 58.8724 557.655 59.0462 561.085 59.1332H569.318L571.165 56.4299C571.339 56.2126 571.582 55.8823 571.885 55.439C572.675 54.2916 573.204 53.7005 573.464 53.7005C573.909 53.7005 575.196 54.6248 577.325 56.4733C579.453 58.3219 580.517 59.4808 580.517 59.9502C580.344 60.6543 579.745 61.002 578.782 61.002H561.848C559.226 61.0737 556.617 61.3997 554.058 61.9755ZM562.23 26.9893H571.521C571.076 22.8634 570.81 17.9378 570.723 12.2126C568.12 12.6124 565.258 12.9427 562.23 13.2035V26.9893Z" fill="#158379"/>
<path d="M599.446 43.0352L598.986 42.0442C604.934 40.1774 610.673 37.6985 616.111 34.6472C616.058 34.0983 616.038 33.5469 616.05 32.9956V25.1727C616.085 22.4819 615.928 19.7921 615.582 17.1237C618.167 17.6245 620.705 18.3517 623.164 19.2967C623.866 19.6966 623.927 20.0964 623.363 20.4875L622.435 21.1482V30.7096C625.623 28.4955 628.641 26.0462 631.466 23.3821C634.652 20.4846 637.169 16.9248 638.839 12.9514L646.352 18.4362C647.2 16.1209 647.924 13.7619 648.521 11.3694H609.197C609.398 13.2976 609.127 15.2459 608.407 17.0454C607.897 18.4056 606.99 19.5806 605.805 20.418C605.323 20.7624 604.774 20.9989 604.193 21.1113C603.612 21.2238 603.014 21.2097 602.439 21.0699C601.841 20.9489 601.286 20.6722 600.829 20.2679C600.373 19.8635 600.03 19.3457 599.836 18.7665C599.681 18.2754 599.63 17.7571 599.687 17.2451C599.743 16.7331 599.907 16.2387 600.166 15.7938C600.686 14.8826 601.465 14.1473 602.404 13.6815C603.729 12.9335 604.824 11.8363 605.571 10.5089C606.537 9.06879 607.042 7.36776 607.019 5.63255L607.887 5.56301C608.363 6.82364 608.714 8.12789 608.937 9.45712H624.812C624.847 6.84175 624.694 4.22724 624.352 1.63413C629.141 2.60186 632.128 3.34939 633.313 3.87672C634.181 4.27656 634.302 4.74595 633.643 5.19794L632.524 5.98894V9.42236H648.2L649.935 7.44054C650.065 7.31015 650.264 7.09284 650.533 6.77992C651.323 5.9107 651.843 5.45871 652.112 5.45871C652.381 5.45871 653.656 6.43223 655.582 8.37059C657.508 10.309 658.454 11.5172 658.454 11.9952C657.751 12.5226 656.894 12.8009 656.016 12.7862C653.288 15.2022 650.255 17.248 646.994 18.8708L646.794 18.7404C646.309 19.401 645.432 19.5314 644.192 19.1316C639.785 24.5733 634.401 29.1401 628.317 32.5958H632.402C635.872 32.5958 637.957 32.5755 638.657 32.535C638.981 32.5428 639.304 32.4818 639.603 32.3559C639.902 32.2301 640.171 32.0423 640.392 31.8048C641.432 30.0728 642.232 28.2072 642.769 26.2592H643.559L643.75 31.8744C644.481 32.0855 645.156 32.4566 645.727 32.9609C646.101 33.3896 646.291 33.9486 646.257 34.5168C646.257 36.0582 645.334 37.1129 643.489 37.6807C641.425 38.3414 637.538 38.6717 631.83 38.6717H623.927C620.989 38.6717 618.965 38.3645 617.854 37.7503C611.925 40.1682 605.753 41.9401 599.446 43.0352ZM603.992 34.4472C603.448 34.2962 602.955 34.0034 602.562 33.5987C602.169 33.194 601.89 32.6919 601.754 32.1438C601.621 31.6608 601.6 31.154 601.691 30.6615C601.783 30.1691 601.985 29.704 602.283 29.3015C602.852 28.4727 603.651 27.8291 604.582 27.45C606.073 26.9288 607.427 26.0725 608.537 24.9467C609.77 23.7567 610.541 22.1675 610.715 20.4615L611.634 20.5223C612.645 23.4744 612.645 26.6797 611.634 29.6318C611.28 30.6498 610.722 31.5844 609.994 32.3782C609.266 33.172 608.384 33.8081 607.401 34.2473C606.874 34.5039 606.301 34.6537 605.716 34.688C605.131 34.7223 604.545 34.6405 603.992 34.4472ZM607.948 64.0008C606.889 64.0008 606.36 63.5575 606.36 62.6796C606.36 61.8017 606.542 60.5674 606.629 58.9854C606.629 58.2813 606.629 57.7076 606.69 57.2469V53.8135C606.745 50.3015 606.525 46.7906 606.03 43.3133C610.773 44.3332 613.74 45.1271 614.931 45.695C615.798 46.1296 615.894 46.5642 615.191 47.0162L614.003 47.7377V57.2991H625.003V53.8222C625.064 49.2981 624.774 44.7761 624.135 40.2971C627.169 40.8287 630.161 41.5781 633.088 42.5397C633.955 42.9395 634.059 43.3568 633.487 43.7914L632.498 44.452V57.2556H643.628V56.7949C643.689 52.268 643.399 47.7431 642.76 43.2612C647.636 44.281 650.687 45.0749 651.913 45.6428C652.78 46.0774 652.876 46.512 652.173 46.964L651.054 47.6855V51.3797C651.141 55.5172 651.279 58.7507 651.453 61.0889C651.236 61.5235 650.438 61.9581 649.076 62.4101C647.714 62.8378 646.296 63.0575 644.869 63.062C643.854 63.062 643.35 62.6274 643.35 61.7495C643.391 61.5699 643.434 61.3265 643.481 61.0194C643.481 60.8021 643.567 60.6021 643.611 60.4283V59.1071H613.968V62.2102C613.968 62.5144 613.335 62.8708 612.06 63.2619C610.735 63.7227 609.349 63.9777 607.948 64.0182V64.0008ZM627.44 21.6958C626.943 20.0467 626.113 18.5173 625.003 17.2019C623.988 15.8337 622.74 14.6566 621.316 13.725L621.776 13.2643C625.558 12.905 628.502 13.302 630.607 14.4551C631.357 14.8007 632.006 15.3342 632.491 16.0041C632.975 16.674 633.28 17.4577 633.374 18.2797C633.458 18.9498 633.354 19.6302 633.074 20.2443C632.793 20.8585 632.348 21.3822 631.787 21.7566C631.139 22.1807 630.38 22.403 629.607 22.3952C628.833 22.3875 628.079 22.1501 627.44 21.7132V21.6958ZM650.299 34.1691C650.04 31.8432 649.302 29.5965 648.13 27.5717C647.031 25.4878 645.608 23.5924 643.914 21.9565L644.504 21.4958C648.72 22.3767 651.901 23.808 654.047 25.7898C654.855 26.4554 655.507 27.291 655.957 28.2374C656.406 29.1838 656.643 30.2177 656.649 31.2659C656.714 32.0078 656.562 32.7525 656.21 33.4087C655.859 34.065 655.324 34.6041 654.671 34.9601C653.341 35.7192 651.884 35.4613 650.299 34.1865V34.1691Z" fill="#158379"/>
<path d="M665.645 63.8009L664.925 63.2793C667.731 57.9348 669.516 52.1128 670.191 46.1122C670.849 40.0654 671.138 33.9841 671.059 27.902V17.5322C671.11 13.9799 670.889 10.4289 670.399 6.91031L679.421 10.8653H692.859C692.899 7.77472 692.702 4.68563 692.269 1.62544C695.244 2.14543 698.173 2.89816 701.031 3.87672C701.898 4.26787 701.95 4.74595 701.291 5.18925L700.172 5.9194V10.8653H713.349L715.197 8.10114C715.397 7.77712 715.617 7.46645 715.857 7.17108C716.724 5.94548 717.236 5.32832 717.496 5.32832C717.936 5.32832 719.176 6.26128 721.218 8.12721C723.265 10.0047 724.289 11.1782 724.289 11.665C724.106 12.369 723.517 12.7167 722.554 12.7167H678.311V21.8957H686.986C687.02 19.3555 686.866 16.8162 686.526 14.2987C689.304 14.864 692.035 15.6369 694.698 16.6108C695.487 17.0107 695.566 17.4018 694.958 17.8017L693.9 18.3927V21.8696H702.827C702.86 19.3294 702.706 16.7902 702.367 14.2726C706.756 15.2461 709.544 16.0168 710.73 16.5847C711.519 16.9846 711.597 17.3584 710.999 17.706L710.01 18.3058V21.8696H714.486L716.134 19.3576L716.594 18.697C717.383 17.4627 717.93 16.8455 718.242 16.8455C718.688 16.8455 719.818 17.7147 721.634 19.4532C723.456 21.1916 724.367 22.2695 724.367 22.7475C724.193 23.4516 723.603 23.808 722.632 23.808H710.053V27.6326C710.053 28.2062 710.053 28.9798 710.114 29.9447C710.2 32.1438 710.296 33.7953 710.383 34.8992C710.2 35.4208 709.454 35.951 708.144 36.4812C706.841 36.9897 705.457 37.2577 704.058 37.2722C703.087 37.2722 702.61 36.8289 702.61 35.951C702.667 35.7573 702.711 35.5598 702.74 35.3599C702.772 35.1806 702.815 35.0035 702.87 34.8297V33.578H693.909V35.7511C693.909 36.1075 693.293 36.5247 692.07 37.0114C690.833 37.5103 689.516 37.7784 688.183 37.8024C687.081 37.8024 686.535 37.3591 686.535 36.4812C686.755 34.4994 686.908 31.8367 686.995 28.4931V23.8167H678.32V27.8412C678.32 35.5888 677.704 41.7719 676.472 46.3904C674.523 53.6976 670.914 59.5011 665.645 63.8009ZM719.274 64.0008C710.599 62.5057 703.746 60.1096 698.715 56.8123C691.474 60.5094 682.799 62.8853 672.689 63.9399L672.36 62.949C681.226 60.8397 688.669 57.7366 694.689 53.6397C691.283 50.4221 688.649 46.4724 686.986 42.0877H684.548C683.142 42.1523 681.758 42.4672 680.462 43.0178L678.727 39.7147C681.148 39.9755 684.071 40.158 687.489 40.245H706.002L708.049 38.5065C708.223 38.3761 708.465 38.1762 708.769 37.9154C709.689 37.1245 710.287 36.7246 710.504 36.7246C710.946 36.7246 712.1 37.5938 713.974 39.2627C715.848 40.9316 716.776 42.0529 716.776 42.531C716.377 43.0612 715.457 43.4002 714.009 43.5219C711.477 47.1149 708.411 50.2984 704.917 52.9617C710.226 54.5031 716.9 55.4505 724.939 55.804L724.879 56.595C721.796 57.6265 719.94 60.1009 719.309 64.0182L719.274 64.0008ZM698.715 50.6061C701.559 48.181 703.986 45.3031 705.898 42.0877H688.313C690.918 45.8495 694.521 48.8062 698.715 50.6235V50.6061ZM693.839 31.7266H702.827V23.8167H693.865L693.839 31.7266Z" fill="#158379"/>
</g>
<defs>
<clipPath id="clip0_1_56">
<rect width="724.939" height="66" fill="white"/>
</clipPath>
</defs>
</svg>
