<svg width="1176" height="368" viewBox="0 0 1176 368" fill="none" xmlns="http://www.w3.org/2000/svg">
<g clip-path="url(#clip0_1_61)">
<path d="M619.92 72.39H625.52V95.76H636.92V100.45H619.92V72.39Z" fill="#069081"/>
<path d="M644.83 72.39H650.44V100.45H644.83V72.39Z" fill="#069081"/>
<path d="M656.72 72.39H662.59L666.3 86.06C667.17 89.17 667.78 91.97 668.65 95.06H668.84C669.75 91.92 670.36 89.12 671.23 86.06L674.86 72.39H680.54L671.98 100.45H665.28L656.72 72.39Z" fill="#069081"/>
<path d="M691.44 72.39H698.03L707.03 100.45H701.16L699.16 93.26H690.07L688.07 100.45H682.39L691.44 72.39ZM691.33 88.9H698L697.16 85.83C696.29 82.92 695.53 79.7 694.74 76.67H694.55C693.83 79.74 693 82.92 692.16 85.83L691.33 88.9Z" fill="#069081"/>
<path d="M713.37 72.39H722.65C728.4 72.39 732.8 74.09 732.8 79.32C732.8 81.89 731.36 84.55 728.97 85.38V85.57C730.507 85.8393 731.893 86.6627 732.864 87.8845C733.835 89.1062 734.325 90.6416 734.24 92.2C734.24 97.84 729.54 100.45 723.37 100.45H713.37V72.39ZM722.23 83.83C725.79 83.83 727.34 82.39 727.34 80.15C727.34 77.69 725.68 76.71 722.34 76.71H719V83.83H722.23ZM722.87 96.14C726.7 96.14 728.78 94.77 728.78 91.86C728.78 89.13 726.78 87.95 722.87 87.95H718.97V96.14H722.87Z" fill="#069081"/>
<path d="M742.18 72.39H747.79V95.76H759.19V100.45H742.19L742.18 72.39Z" fill="#069081"/>
<path d="M767.1 72.39H784.28V77.08H772.69V83.56H782.54V88.26H772.69V95.76H784.69V100.45H767.08L767.1 72.39Z" fill="#069081"/>
<path d="M618.52 126.42C618.52 117.18 624.46 111.76 631.52 111.76C633.062 111.775 634.585 112.102 635.998 112.72C637.41 113.339 638.683 114.237 639.74 115.36L636.83 118.92C636.163 118.205 635.361 117.63 634.47 117.226C633.579 116.823 632.617 116.6 631.64 116.57C627.4 116.57 624.22 120.21 624.22 126.23C624.22 132.25 627.09 136 631.52 136C632.628 135.983 633.719 135.727 634.72 135.251C635.721 134.775 636.608 134.089 637.32 133.24L640.32 136.72C639.238 138.035 637.873 139.09 636.327 139.805C634.781 140.52 633.093 140.877 631.39 140.85C624.28 140.9 618.52 135.77 618.52 126.42Z" fill="#069081"/>
<path d="M647.82 112.25H653.43V140.32H647.82V112.25Z" fill="#069081"/>
<path d="M668.92 116.95H661.04V112.25H682.48V116.95H674.48V140.32H668.88L668.92 116.95Z" fill="#069081"/>
<path d="M694.06 130.06L685.65 112.25H691.65L694.45 119.11C695.24 121.19 696 123.16 696.87 125.32H697.02C697.89 123.16 698.73 121.19 699.52 119.11L702.33 112.25H708.16L699.71 130.06V140.32H694.11L694.06 130.06Z" fill="#069081"/>
<path d="M306.44 67.72H309.28C310.15 67.72 310.94 68.51 311.67 70.11L311.02 71.63C311.02 72.22 311.24 72.51 311.67 72.51C310.655 82.7809 308.911 92.9667 306.45 102.99H307.32C313.847 97.33 323.717 90.9434 336.93 83.83C339.983 84.1234 342.233 84.85 343.68 86.01C343.68 93.6967 337.873 100.363 326.26 106.01C322.927 109.063 314.507 114.943 301 123.65C299.091 123.724 297.191 123.348 295.454 122.552C293.717 121.756 292.191 120.564 291 119.07V113.63L304.06 69.21L306.44 67.72ZM342.36 18.9C349.913 20.5 353.69 22.2434 353.69 24.13V24.78C353.69 30.7334 344.76 39.4434 326.9 50.91C320.813 56.43 311.67 61.0734 299.47 64.84H296.42C295.42 64.84 294.9 64.27 294.9 63.1V60.05C297.8 56.7167 304.467 52.1467 314.9 46.34C328.54 33.1267 335.58 26.52 336.02 26.52C337.789 23.7122 339.921 21.1501 342.36 18.9ZM333.22 64.9H337.79C338.52 64.9 339.24 65.56 339.97 66.9V72.57C332.27 79.97 325.157 84.25 318.63 85.41H316.45C314.28 84.69 313.19 82.36 313.19 78.41C321.917 69.4034 328.593 64.9 333.22 64.9ZM364.57 46.4H368.49C369.94 46.83 370.67 48.4 370.67 50.97C370.67 63.1634 362.76 104.027 346.94 173.56C345.34 176.033 344.25 177.267 343.67 177.26H342.36C336.413 177.26 332.857 175.737 331.69 172.69V172.03C331.69 167.103 339.023 139.017 353.69 87.77C359.643 60.1767 363.27 46.38 364.57 46.38V46.4ZM403.57 32.46C410.237 34.5 413.57 38.6367 413.57 44.87C410.81 76.0834 408.703 92.3434 407.25 93.65C405.177 95.714 402.515 97.0836 399.63 97.57C391.497 97.57 385.4 95.03 381.34 89.95V86.03C384.82 81.53 387.87 79.28 390.49 79.28H395.28C397.28 65.9467 398.513 58.76 398.98 57.72C398.98 57.28 398.69 57.07 398.11 57.07C398.798 53.5415 399.305 49.9802 399.63 46.4H398.98C388.813 49.44 382.207 50.9634 379.16 50.97C375.53 50.53 373.72 49.23 373.72 47.05C373.72 43.7167 380.907 39.6534 395.28 34.86C395.28 33.68 398.03 32.9 403.55 32.44L403.57 32.46Z" fill="#6B75B4"/>
<path d="M504.36 14.59C509.3 14.59 512.93 16.1134 515.25 19.16V20.46C515.268 20.5789 515.259 20.7005 515.222 20.8149C515.185 20.9294 515.121 21.0336 515.037 21.1191C514.952 21.2047 514.849 21.2692 514.735 21.3076C514.621 21.3459 514.499 21.3571 514.38 21.34C514.363 21.4582 514.374 21.5786 514.412 21.6917C514.45 21.8049 514.514 21.9077 514.598 21.992C514.682 22.0764 514.785 22.14 514.898 22.1779C515.012 22.2157 515.132 22.2267 515.25 22.21C515.25 27.29 511.113 34.1833 502.84 42.89H503.71C515.323 40.2767 521.42 38.97 522 38.97C531.433 38.97 536.803 42.8167 538.11 50.51V51.17H537.28L538.15 52.91V54.43C536.15 70.11 532.523 77.95 527.27 77.95L522.91 76.43C522.91 77.8834 514.42 80.7133 497.44 84.92C496.318 89.6435 494.242 94.0877 491.34 97.98V98.85C494.24 95.0834 496.273 93.1967 497.44 93.19C503.393 93.19 511.593 100.377 522.04 114.75C525.52 122.01 527.263 128.18 527.27 133.26V134.78C525.937 144.78 522.38 152.91 516.6 159.17C509.047 159.17 505.27 156.12 505.27 150.02C506.851 146.069 508.092 141.991 508.98 137.83C508.98 129.27 503.39 118.02 492.21 104.08C491.499 102.913 490.916 101.672 490.47 100.38C483.802 108.716 477.968 117.686 473.05 127.16C466.381 134.362 460.198 141.999 454.54 150.02C446.7 156.853 441.11 161.21 437.77 163.09H433.85C433.71 163.09 431.17 160.757 426.23 156.09V150.65C428.99 146.577 433.637 142.293 440.17 137.8C443.07 132.14 447.86 126.043 454.54 119.51C455.413 119.51 460.783 112.843 470.65 99.51C474.71 96.31 478.557 91.6634 482.19 85.57V84.9H476.1C475.37 84.9 474.57 84.17 473.7 82.72V79.72C475.7 77.2467 481.58 74.4167 491.34 71.23C491.34 70.2233 494.17 66.0867 499.83 58.82H498.96C492.133 60.42 487.85 61.2167 486.11 61.21C480.45 60.63 477.62 59.1067 477.62 56.64H476.97C476.97 74.7934 473.123 85.2467 465.43 88C460.34 87.12 457.81 85.09 457.81 81.9C457.81 76.24 461.073 64.7 467.6 47.28L469.35 46.84H472.18C475.373 48.7267 476.97 51.2667 476.97 54.46H477.62C477.62 51.1267 480.953 48.7334 487.62 47.28L486.75 45.97V41.4C486.75 37.9067 489.58 33.55 495.24 28.33V27.68C495.24 26.96 492.19 25.6533 486.09 23.76L485.22 22.24C485.22 17.16 489.793 14.62 498.94 14.62L504.36 14.59ZM484.55 0C485.71 3.04667 486.727 4.57001 487.6 4.57001C487.6 12.6967 480.197 25.18 465.39 42.02C465.39 43.9067 460.017 48.9867 449.27 57.26C444.77 59.88 441.213 61.1867 438.6 61.18C435.7 58.1334 434.103 55.3767 433.81 52.91C434.39 52.91 435.697 51.0234 437.73 47.25C443.97 43.47 450.357 36.9367 456.89 27.65C465.89 20.0967 472.557 12.62 476.89 5.22003C479.09 2.1667 481.643 0.426667 484.55 0ZM504.36 133.9L505.89 136.29V137.17C496.603 163.443 488.4 181.513 481.28 191.38C479.387 194.433 476.847 195.96 473.66 195.96C469.74 194.507 467.2 192.763 466.04 190.73V187.46C467.64 183.98 471.27 178.683 476.93 171.57C489.99 146.457 499.133 133.9 504.36 133.9ZM492.82 117.13L494.35 119.53V123.23C494.35 138.037 489.05 146.673 478.45 149.14H477.58C477 149.14 475.693 147.4 473.66 143.92C473.66 142.473 475.993 138.117 480.66 130.85C483.693 121.717 487.747 117.147 492.82 117.14V117.13ZM501.97 58.13V58.79C505.017 59.2167 506.54 60.5234 506.54 62.71C505.743 64.4172 505.297 66.2672 505.23 68.15H505.89L513.51 65.76L515.25 66.41L519.6 65.76H521.13C521.13 63.76 521.42 62.71 522 62.71C522 62.27 521.71 62.05 521.13 62.05L522 56.61V54.43H520.48C509.593 56.9034 503.423 58.1367 501.97 58.13ZM546.39 80.34C549.437 80.34 551.467 83.1734 552.48 88.84C552.34 91.3134 545.52 97.19 532.02 106.47L527.23 107.13C526.23 106.98 525.23 105.68 524.23 103.21C525.39 97.11 531.34 89.9967 542.08 81.87C543.386 81.0483 544.858 80.5259 546.39 80.34ZM545.73 100.34C570.703 111.367 583.703 117.753 584.73 119.5L587.13 123.85V125.6C587.13 128.213 585.313 130.463 581.68 132.35C581.561 132.367 581.439 132.356 581.325 132.318C581.211 132.279 581.108 132.215 581.023 132.129C580.939 132.044 580.875 131.939 580.838 131.825C580.801 131.71 580.792 131.589 580.81 131.47C579.58 132.496 578.058 133.108 576.46 133.22C573.7 133.22 562.667 127.05 543.36 114.71C539.873 111.083 538.13 108.033 538.13 105.56C538.928 104.182 540.025 103.001 541.34 102.105C542.656 101.208 544.156 100.619 545.73 100.38V100.34Z" fill="#6B75B4"/>
<path d="M424.54 199.9C424.727 199.913 424.91 199.962 425.078 200.047C425.245 200.131 425.394 200.247 425.516 200.39C425.638 200.532 425.731 200.698 425.788 200.876C425.845 201.055 425.866 201.243 425.85 201.43V225.16C425.85 225.6 425.55 225.81 424.98 225.81C425.453 226.531 425.751 227.353 425.85 228.21L424.98 231.26L425.85 232.78C425.27 233.672 424.967 234.716 424.98 235.78H425.85C432.617 235.633 439.338 234.624 445.85 232.78C450.93 232.78 453.47 235.113 453.47 239.78C453.91 239.78 454.12 240.51 454.12 241.96V243.48C451.513 243.48 448.18 253.207 444.12 272.66L442.12 280.93C457.793 283.983 465.63 286.817 465.63 289.43V294.22C460.963 300.307 456.9 303.353 453.44 303.36C442.7 302.347 437.033 301.257 436.44 300.09H432.73C419.397 325.35 408.657 343.207 400.51 353.66C392.143 362.52 386.067 366.933 382.28 366.9C380.816 367.438 379.256 367.663 377.7 367.56C374.08 366.113 372.267 363.78 372.26 360.56C372.26 353.3 378.357 346.187 390.55 339.22C408.703 311.353 418.72 296.547 420.6 294.8C407.267 291.467 400.6 289.133 400.6 287.8C400.6 287.37 398.86 286.13 395.37 284.1C395.37 282.767 397.91 277.687 402.99 268.86C404.01 267.407 406.26 261.453 409.74 251C392.473 249.993 383.837 247.453 383.83 243.38V240.55C383.83 239.97 385.43 238.67 388.62 236.63C394.573 237.07 398.857 237.287 401.47 237.28H413.66C417.727 212.36 421.353 199.9 424.54 199.9ZM415.83 272.63V274.15C420.226 274.507 424.483 275.858 428.28 278.1H428.93C430.09 277.52 432.423 271.853 435.93 261.1L435.06 259.79C437.128 256.395 438.717 252.73 439.78 248.9H438.91C427.73 248.9 422.14 250.643 422.14 254.13C417.933 265.903 415.83 272.08 415.83 272.66V272.63ZM517.73 205.35H520.78L526.88 210.57V212.97C526.95 213.95 526.788 214.932 526.41 215.839C526.031 216.745 525.446 217.551 524.7 218.19L525.36 219.72C518.967 233.647 509.747 247 497.7 259.78C497.84 260.8 499.437 262.253 502.49 264.14C512.418 255.357 522.893 247.21 533.85 239.75C545.017 230.03 552.927 225.167 557.58 225.16H559.11C561.11 225.887 562.127 228.22 562.16 232.16V234.34C550.808 246.146 538.002 256.462 524.05 265.04C524.05 265.773 518.897 269.62 508.59 276.58C509.017 282.527 509.233 286.81 509.24 289.43V290.3L507.72 295.74L508.59 297.05C503.803 315.19 496.183 327.163 485.73 332.97C484.506 333.123 483.362 333.659 482.46 334.5H480.94C478.18 334.5 475.637 332.757 473.31 329.27V328.62C473.31 327.02 478.393 318.6 488.56 303.36C489.024 298.797 490.355 294.364 492.48 290.3H491.82C482.68 295.82 477.31 298.577 475.71 298.57L471.79 294.87C471.79 291.097 476.437 285.943 485.73 279.41C485.73 278.97 487.47 277.227 490.95 274.18C485.87 272.18 482.537 268.847 480.95 264.18V263.52C480.95 261.52 487.617 253.103 500.95 238.27C506.457 230.27 509.213 225.407 509.22 223.68C506.9 225.573 501.093 227.387 491.8 229.12C491.682 229.137 491.561 229.126 491.448 229.088C491.335 229.05 491.232 228.986 491.148 228.902C491.064 228.818 491 228.715 490.962 228.602C490.924 228.489 490.913 228.368 490.93 228.25L489.41 229.12C481.277 228.4 477.21 226.587 477.21 223.68C477.21 219.9 478.227 217.287 480.26 215.84L484.18 216.71C487.667 216.13 489.627 215.84 490.06 215.84V216.71L517.73 205.35Z" fill="#6B75B4"/>
<path d="M609.62 199.9C609.807 199.913 609.99 199.962 610.158 200.047C610.325 200.131 610.474 200.247 610.596 200.39C610.718 200.532 610.811 200.698 610.868 200.876C610.925 201.055 610.946 201.243 610.93 201.43V225.16C610.93 225.6 610.63 225.81 610.06 225.81C610.533 226.531 610.831 227.353 610.93 228.21L610.06 231.26L610.93 232.78C610.35 233.672 610.047 234.716 610.06 235.78H610.93C617.697 235.633 624.418 234.624 630.93 232.78C636.01 232.78 638.55 235.113 638.55 239.78C638.99 239.78 639.2 240.51 639.2 241.96V243.48C636.593 243.48 633.26 253.207 629.2 272.66L627.2 280.93C642.88 283.983 650.717 286.817 650.71 289.43V294.22C646.043 300.307 641.98 303.353 638.52 303.36C627.78 302.347 622.113 301.257 621.52 300.09H617.81C604.477 325.35 593.737 343.207 585.59 353.66C577.17 362.52 571.073 366.947 567.3 366.94C565.84 367.478 564.283 367.702 562.73 367.6C559.097 366.153 557.28 363.82 557.28 360.6C557.28 353.34 563.377 346.227 575.57 339.26C593.723 311.393 603.74 296.587 605.62 294.84C592.287 291.507 585.62 289.173 585.62 287.84C585.62 287.41 583.88 286.17 580.39 284.14C580.39 282.807 582.93 277.727 588.01 268.9C589.03 267.447 591.28 261.493 594.76 251.04C577.487 250.033 568.85 247.493 568.85 243.42V240.59C568.85 240.01 570.45 238.71 573.64 236.67C579.593 237.11 583.877 237.327 586.49 237.32H598.68C602.787 212.373 606.433 199.9 609.62 199.9ZM600.91 272.63V274.15C605.278 274.519 609.507 275.869 613.28 278.1H613.94C615.1 277.52 617.433 271.853 620.94 261.1L620.07 259.79C622.163 256.399 623.775 252.734 624.86 248.9H623.99C612.81 248.9 607.223 250.643 607.23 254.13C603.01 265.903 600.903 272.08 600.91 272.66V272.63ZM702.81 205.35H705.81L711.91 210.57V212.97C711.979 213.95 711.819 214.932 711.44 215.839C711.061 216.745 710.476 217.551 709.73 218.19L710.39 219.72C703.997 233.647 694.777 247 682.73 259.78C682.88 260.78 684.47 262.25 687.52 264.14C697.448 255.357 707.923 247.21 718.88 239.75C730.053 230.03 737.963 225.167 742.61 225.16H744.14C746.14 225.887 747.157 228.22 747.19 232.16V234.34C735.838 246.146 723.032 256.462 709.08 265.04C709.08 265.773 703.927 269.62 693.62 276.58C694.06 282.527 694.277 286.81 694.27 289.43V290.3L692.75 295.74L693.62 297.05C688.833 315.19 681.213 327.163 670.76 332.97C669.536 333.123 668.392 333.659 667.49 334.5H665.97C663.21 334.5 660.67 332.757 658.35 329.27V328.62C658.35 327.02 663.43 318.6 673.59 303.36C674.054 298.797 675.385 294.364 677.51 290.3H676.85C667.71 295.82 662.34 298.577 660.74 298.57L656.82 294.87C656.82 291.097 661.467 285.943 670.76 279.41C670.76 278.97 672.5 277.227 675.98 274.18C670.9 272.18 667.567 268.847 665.98 264.18V263.52C665.98 261.52 672.647 253.103 685.98 238.27C691.493 230.27 694.25 225.407 694.25 223.68C691.93 225.573 686.123 227.387 676.83 229.12C676.712 229.137 676.591 229.126 676.478 229.088C676.365 229.05 676.262 228.986 676.178 228.902C676.094 228.818 676.03 228.715 675.992 228.602C675.954 228.489 675.943 228.368 675.96 228.25L674.44 229.12C666.307 228.4 662.243 226.587 662.25 223.68C662.25 219.9 663.25 217.287 665.25 215.84L669.17 216.71C672.657 216.13 674.617 215.84 675.05 215.84V216.71L702.81 205.35Z" fill="#6B75B4"/>
<path d="M760.61 317.71L761.48 317.79C763.48 317.997 764.027 322.663 763.12 331.79L763.03 332.66C759.357 335.787 756.653 337.263 754.92 337.09C751.473 335.13 749.927 332.417 750.28 328.95C752.693 321.003 756.137 317.257 760.61 317.71ZM788.78 201.9H789.22C793.98 202.38 796.023 205.943 795.35 212.59C786.637 226.797 779.323 243.52 773.41 262.76C771.282 269.413 769.5 276.172 768.07 283.01L768.79 284.61C767.298 287.949 766.135 291.425 765.32 294.99C765.862 296.249 766.025 297.639 765.79 298.99C765.8 299.115 765.778 299.241 765.728 299.356C765.677 299.471 765.599 299.572 765.5 299.649C765.401 299.726 765.284 299.778 765.16 299.799C765.036 299.82 764.909 299.81 764.79 299.77L765.53 301.16C764.698 303.137 763.121 304.707 761.14 305.53L760.28 305.44C757.24 305.127 756.477 297.537 757.99 282.67L758.15 281.15C758.256 280.174 758.129 279.187 757.78 278.27C758.333 277.292 758.674 276.208 758.78 275.09L758.94 273.57C759.847 264.617 761.017 258.827 762.45 256.2C762.5 255.76 762.23 255.52 761.65 255.46C768.89 224.393 774.027 209.01 777.06 209.31C777.38 206.417 781.287 203.947 788.78 201.9Z" fill="#6B75B4"/>
<path d="M161.812 327.635C163.347 328.306 164.781 329.188 166.072 330.255C174.422 336.525 184.602 343.195 194.532 339.945C196.092 340.945 198.242 340.055 199.922 338.575C200.592 335.825 196.432 334.925 193.602 334.885C187.788 334.786 182.229 332.481 178.052 328.435C173.842 324.325 170.842 318.335 165.172 316.755C162.642 316.055 159.792 316.335 157.592 314.905C153.802 312.445 154.152 306.525 150.982 303.285C148.192 300.435 143.632 300.535 139.982 298.915C135.112 296.745 132.262 291.695 130.102 286.825C126.553 278.807 123.971 270.394 122.412 261.765C121.052 254.215 120.412 246.305 116.702 239.595C112.992 232.885 104.982 227.695 97.7018 230.175C95.8218 230.815 93.8719 231.945 91.9719 231.355C89.4619 230.565 88.7919 227.425 87.4919 225.135C84.0619 219.085 73.4918 219.575 70.6118 225.925C69.2018 214.155 61.3419 204.105 52.312 196.435C45.952 191.025 38.6719 186.375 30.5019 184.655C22.3319 182.935 13.152 184.535 7.07196 190.255C0.991962 195.975 -0.928253 206.165 3.85175 212.995C4.85175 214.455 6.23196 215.945 6.07196 217.725C5.82285 218.901 5.27519 219.992 4.48187 220.895C-3.11813 231.685 -0.518096 247.505 8.2619 257.395C17.0419 267.285 30.4918 271.885 43.6618 272.755C48.0418 273.045 52.762 273.065 56.332 275.645C60.082 278.355 61.5318 283.145 63.6718 287.255C65.9542 291.536 69.1565 295.258 73.0485 298.154C76.9406 301.05 81.4257 303.048 86.1818 304.005C98.4318 306.365 112.302 301.805 122.892 308.385C127.492 311.245 130.712 315.825 134.822 319.325C140.121 323.816 146.754 326.431 153.692 326.765C156.452 326.885 159.262 326.665 161.812 327.635ZM1042.7 306.635C1045.88 301.635 1047.56 293.885 1042.52 290.825C1041.62 290.275 1040.52 289.895 1039.99 288.985C1038.87 287.065 1041.09 284.985 1042.33 283.185C1045.4 278.675 1042.03 271.965 1036.93 270.015C1031.83 268.065 1026.04 269.705 1021.21 272.235C1012.09 277.077 1004.93 284.934 1000.96 294.465C1000.41 295.765 999.842 297.205 998.602 297.865C997.547 298.291 996.4 298.436 995.272 298.285C981.722 297.925 969.992 308.545 963.942 320.675C963.394 322.098 962.484 323.352 961.302 324.315C960.155 324.904 958.918 325.299 957.642 325.485C952.302 326.835 948.422 331.285 944.062 334.655C932.062 343.995 915.812 345.365 900.602 346.375C903.382 350.025 908.922 351.195 909.822 348.855C922.797 350.326 935.935 348.574 948.072 343.755C949.962 343.005 952.072 342.185 953.942 343.065C954.882 343.515 955.582 344.375 956.522 344.845C958.772 346.005 961.522 344.645 963.392 342.965C965.262 341.285 966.992 339.175 969.392 338.495C972.202 337.715 975.122 339.075 978.032 339.215C984.292 339.515 989.322 334.355 995.112 331.965C999.532 330.145 1004.43 329.965 1009.11 329.115C1015.94 327.861 1022.45 325.224 1028.22 321.367C1034 317.51 1038.93 312.514 1042.7 306.685V306.635ZM213.442 351.635C210.852 352.255 208.282 353.225 205.622 353.045C202.962 352.865 200.622 351.555 198.002 351.045C193.272 350.045 188.422 351.615 183.592 352.045C173.492 352.855 163.742 348.415 154.922 343.425C153.082 342.425 151.122 341.275 149.012 341.425C146.902 341.575 144.782 343.545 145.382 345.575C145.762 346.533 146.429 347.351 147.292 347.915C152.611 352.081 158.725 355.117 165.26 356.837C171.794 358.556 178.611 358.923 185.292 357.915C187.642 357.394 190.045 357.149 192.452 357.185C194.823 357.528 197.148 358.139 199.382 359.005C205.553 360.9 212.061 361.441 218.46 360.59C224.86 359.739 231 357.517 236.462 354.075C234.402 353.615 232.272 353.495 231.352 353.125C225.677 350.793 219.416 350.29 213.442 351.685V351.635ZM1174.96 232.495C1175.79 226.175 1170.96 219.995 1164.83 218.085C1158.7 216.175 1151.96 217.915 1146.61 221.395C1141.26 224.875 1137.13 229.905 1133.36 235.045C1129.2 240.725 1125.21 247.195 1125.59 254.225C1118.34 250.035 1108.59 252.425 1102.49 258.165C1096.39 263.905 1093.44 272.295 1092.16 280.565C1092.11 281.687 1091.76 282.776 1091.16 283.725C1089.84 285.365 1087.38 285.245 1085.32 285.725C1081.11 286.635 1078.08 290.405 1076.4 294.375C1074.72 298.345 1074.06 302.655 1072.55 306.685C1066.77 322.085 1050.28 330.175 1035.22 336.795C1034.48 337.111 1033.82 337.616 1033.33 338.259C1032.84 338.902 1032.52 339.662 1032.41 340.465C1054.79 339.065 1075.67 329.255 1095.92 319.615C1123.44 306.515 1151.84 292.755 1171.45 269.425C1173.31 267.205 1175.14 264.795 1175.63 261.945C1176.12 259.095 1174.81 255.735 1172.07 254.825C1170.66 254.365 1168.96 254.535 1167.86 253.535C1166.76 252.535 1166.8 250.825 1167.14 249.395C1168.49 243.285 1174.09 238.685 1174.96 232.495Z" fill="#41A390"/>
</g>
<defs>
<clipPath id="clip0_1_61">
<rect width="1175.73" height="367.624" fill="white"/>
</clipPath>
</defs>
</svg>
