<svg width="319" height="230" viewBox="0 0 319 230" fill="none" xmlns="http://www.w3.org/2000/svg">
<g clip-path="url(#clip0_2009_46)">
<path d="M193.781 69.6246H196.236V79.8684H201.232V81.9241H193.781V69.6246Z" fill="#069081"/>
<path d="M204.7 69.6246H207.159V81.9241H204.7V69.6246Z" fill="#069081"/>
<path d="M209.911 69.6246H212.484L214.111 75.6166C214.492 76.9798 214.759 78.2071 215.141 79.5616H215.224C215.623 78.1852 215.89 76.9579 216.272 75.6166L217.863 69.6246H220.352L216.6 81.9241H213.664L209.911 69.6246Z" fill="#069081"/>
<path d="M225.13 69.6246H228.019L231.964 81.9241H229.391L228.514 78.7726H224.53L223.653 81.9241H221.163L225.13 69.6246ZM225.082 76.8615H228.006L227.637 75.5158C227.256 74.2402 226.923 72.8288 226.577 71.5007H226.493C226.178 72.8464 225.814 74.2402 225.446 75.5158L225.082 76.8615Z" fill="#069081"/>
<path d="M234.743 69.6246H238.81C241.331 69.6246 243.259 70.3698 243.259 72.6623C243.259 73.7888 242.628 74.9547 241.581 75.3185V75.4018C242.254 75.5198 242.862 75.8808 243.287 76.4163C243.713 76.9518 243.928 77.6248 243.891 78.3079C243.891 80.7801 241.831 81.9241 239.126 81.9241H234.743V69.6246ZM238.626 74.6391C240.187 74.6391 240.866 74.0079 240.866 73.0261C240.866 71.9478 240.139 71.5182 238.675 71.5182H237.211V74.6391H238.626ZM238.907 80.0349C240.586 80.0349 241.497 79.4344 241.497 78.1589C241.497 76.9623 240.621 76.445 238.907 76.445H237.197V80.0349H238.907Z" fill="#069081"/>
<path d="M247.371 69.6246H249.83V79.8684H254.827V81.9241H247.375L247.371 69.6246Z" fill="#069081"/>
<path d="M258.294 69.6246H265.825V71.6804H260.744V74.5208H265.062V76.5809H260.744V79.8684H266.004V81.9241H258.285L258.294 69.6246Z" fill="#069081"/>
<path d="M193.167 93.3075C193.167 89.2574 195.771 86.8816 198.866 86.8816C199.541 86.8882 200.209 87.0314 200.828 87.3026C201.447 87.5738 202.005 87.9673 202.469 88.4596L201.193 90.0201C200.901 89.7068 200.549 89.4544 200.159 89.2777C199.768 89.1009 199.347 89.0031 198.918 88.99C197.06 88.99 195.666 90.5855 195.666 93.2242C195.666 95.863 196.924 97.5067 198.866 97.5067C199.351 97.4991 199.83 97.3871 200.268 97.1784C200.707 96.9697 201.096 96.669 201.408 96.2969L202.723 97.8223C202.248 98.3989 201.65 98.8611 200.972 99.1745C200.295 99.4879 199.555 99.6445 198.809 99.6326C195.692 99.6545 193.167 97.4059 193.167 93.3075Z" fill="#069081"/>
<path d="M206.01 87.0964H208.469V99.4003H206.01V87.0964Z" fill="#069081"/>
<path d="M215.259 89.1566H211.805V87.0964H221.203V89.1566H217.696V99.4003H215.242L215.259 89.1566Z" fill="#069081"/>
<path d="M226.279 94.903L222.592 87.0964H225.222L226.45 90.1033C226.796 91.0151 227.129 91.8786 227.51 92.8254H227.576C227.957 91.8786 228.326 91.0151 228.672 90.1033L229.904 87.0964H232.459L228.755 94.903V99.4003H226.301L226.279 94.903Z" fill="#069081"/>
<path d="M56.3737 67.5777H57.6186C58 67.5777 58.3462 67.9239 58.6662 68.6253L58.3813 69.2915C58.3813 69.5501 58.4777 69.6772 58.6662 69.6772C58.2213 74.1793 57.4567 78.644 56.3781 83.0375H56.7595C59.6203 80.5566 63.9466 77.7571 69.7384 74.6391C71.0767 74.7677 72.063 75.0862 72.6971 75.5947C72.6971 78.964 70.1519 81.8861 65.0614 84.3612C63.6003 85.6996 59.9096 88.277 53.9892 92.0934C53.1524 92.1256 52.3197 91.9608 51.5583 91.6121C50.7969 91.2633 50.1281 90.7405 49.606 90.0858V87.7013L55.3306 68.2308L56.3737 67.5777ZM72.1186 46.1785C75.4294 46.8798 77.0847 47.6439 77.0847 48.4709V48.7558C77.0847 51.3653 73.1706 55.1832 65.342 60.2094C62.6741 62.6289 58.6662 64.6642 53.3186 66.3153H51.9817C51.5433 66.3153 51.3155 66.0654 51.3155 65.5526V64.2157C52.5867 62.7546 55.5088 60.7514 60.0821 58.2062C66.0609 52.4144 69.1466 49.5185 69.3395 49.5185C70.1149 48.2878 71.0493 47.1647 72.1186 46.1785ZM68.1122 66.3416H70.1154C70.4353 66.3416 70.7509 66.6309 71.0709 67.2182V69.7036C67.6958 72.9472 64.5779 74.8232 61.717 75.3317H60.7614C59.8102 75.0161 59.3324 73.9948 59.3324 72.2634C63.1576 68.3155 66.0842 66.3416 68.1122 66.3416ZM81.8538 58.2325H83.572C84.2076 58.421 84.5275 59.1092 84.5275 60.2357C84.5275 65.5803 81.0604 83.4919 74.126 113.97C73.4247 115.054 72.9469 115.595 72.6927 115.592H72.1186C69.512 115.592 67.9529 114.924 67.4415 113.589V113.3C67.4415 111.14 70.6559 98.829 77.0847 76.3661C79.6943 64.2712 81.284 58.2237 81.8538 58.2237V58.2325ZM98.9486 52.1222C101.871 53.0164 103.332 54.8296 103.332 57.5618C102.122 71.2435 101.199 78.3708 100.562 78.9435C99.653 79.8482 98.486 80.4486 97.2216 80.6618C93.6566 80.6618 90.9842 79.5484 89.2046 77.3217V75.6035C90.73 73.631 92.0668 72.6447 93.2152 72.6447H95.3149C96.1915 66.8004 96.7321 63.6502 96.9366 63.1944C96.9366 63.0015 96.8096 62.9095 96.5554 62.9095C96.8569 61.3628 97.0793 59.8018 97.2216 58.2325H96.9366C92.4803 59.565 89.5844 60.2327 88.249 60.2357C86.6578 60.0428 85.8645 59.473 85.8645 58.5174C85.8645 57.0563 89.0146 55.2752 95.3149 53.1742C95.3149 52.657 96.5203 52.3151 98.9398 52.1134L98.9486 52.1222Z" fill="#6B75B4"/>
<path d="M143.128 44.2893C145.293 44.2893 146.884 44.957 147.901 46.2924V46.8623C147.909 46.9144 147.905 46.9677 147.889 47.0178C147.872 47.068 147.845 47.1137 147.808 47.1512C147.771 47.1887 147.725 47.2169 147.675 47.2338C147.625 47.2506 147.572 47.2555 147.52 47.248C147.513 47.2998 147.517 47.3525 147.534 47.4021C147.55 47.4517 147.578 47.4968 147.615 47.5338C147.652 47.5708 147.697 47.5986 147.747 47.6152C147.797 47.6318 147.849 47.6366 147.901 47.6293C147.901 49.856 146.088 52.8776 142.461 56.694H142.843C147.933 55.5485 150.606 54.9757 150.86 54.9757C154.995 54.9757 157.349 56.6618 157.921 60.034V60.3233H157.557L157.939 61.086V61.7523C157.062 68.6253 155.473 72.0617 153.17 72.0617L151.259 71.3955C151.259 72.0325 147.537 73.273 140.094 75.1169C139.603 77.1873 138.693 79.1354 137.421 80.8415V81.2228C138.692 79.5718 139.583 78.7448 140.094 78.7419C142.704 78.7419 146.298 81.892 150.877 88.1922C152.403 91.3745 153.167 94.079 153.17 96.3057V96.972C152.585 101.355 151.026 104.919 148.493 107.663C145.182 107.663 143.527 106.326 143.527 103.652C144.219 101.92 144.763 100.133 145.153 98.3089C145.153 94.5568 142.703 89.6256 137.802 83.5153C137.49 83.0036 137.235 82.4599 137.039 81.8935C134.117 85.5474 131.559 89.479 129.404 93.6319C126.481 96.7888 123.77 100.136 121.29 103.652C117.854 106.647 115.403 108.557 113.939 109.381H112.221C112.16 109.381 111.046 108.358 108.881 106.313V103.928C110.091 102.143 112.128 100.265 114.991 98.2957C116.263 95.8148 118.362 93.1424 121.29 90.2787C121.673 90.2787 124.027 87.3565 128.352 81.5121C130.131 80.1095 131.817 78.0727 133.41 75.4018V75.1081H130.741C130.421 75.1081 130.07 74.7882 129.689 74.1526V72.8376C130.565 71.7535 133.143 70.513 137.421 69.1162C137.421 68.6749 138.661 66.8617 141.142 63.6765H140.761C137.768 64.3779 135.891 64.7271 135.128 64.7241C132.647 64.4699 131.407 63.8022 131.407 62.721H131.122C131.122 70.6781 129.436 75.2601 126.064 76.467C123.832 76.0812 122.724 75.1914 122.724 73.7932C122.724 71.3122 124.154 66.2539 127.015 58.6182L127.782 58.4254H129.022C130.422 59.2523 131.122 60.3657 131.122 61.7654H131.407C131.407 60.3043 132.868 59.2553 135.79 58.6182L135.409 58.044V56.0408C135.409 54.5096 136.649 52.6 139.13 50.3119V50.027C139.13 49.7114 137.793 49.1386 135.119 48.3087L134.738 47.6425C134.738 45.4158 136.743 44.3024 140.752 44.3024L143.128 44.2893ZM134.444 37.894C134.953 39.2295 135.399 39.8972 135.781 39.8972C135.781 43.4594 132.536 48.9312 126.046 56.3126C126.046 57.1396 123.691 59.3663 118.98 62.9927C117.008 64.1412 115.449 64.7139 114.303 64.711C113.032 63.3755 112.332 62.1672 112.204 61.086C112.458 61.086 113.031 60.259 113.922 58.6051C116.657 56.9482 119.457 54.0844 122.32 50.0138C126.265 46.703 129.187 43.4258 131.087 40.1821C132.051 38.8438 133.17 38.0811 134.444 37.894ZM143.128 96.5862L143.798 97.6338V98.0196C139.728 109.536 136.132 117.457 133.011 121.781C132.181 123.12 131.068 123.789 129.671 123.789C127.953 123.152 126.839 122.388 126.331 121.496V120.063C127.032 118.538 128.623 116.216 131.104 113.098C136.829 102.09 140.837 96.5862 143.128 96.5862ZM138.069 89.2355L138.74 90.2875V91.9093C138.74 98.3994 136.417 102.185 131.771 103.266H131.389C131.135 103.266 130.562 102.504 129.671 100.978C129.671 100.344 130.694 98.4345 132.739 95.2493C134.069 91.2459 135.846 89.2428 138.069 89.2398V89.2355ZM142.08 63.3741V63.6634C143.416 63.8504 144.083 64.4231 144.083 65.3816C143.734 66.1299 143.539 66.9408 143.509 67.7661H143.798L147.138 66.7185L147.901 67.0034L149.808 66.7185H150.479C150.479 65.8419 150.606 65.3816 150.86 65.3816C150.86 65.1888 150.733 65.0923 150.479 65.0923L150.86 62.7078V61.7523H150.194C145.422 62.8364 142.717 63.377 142.08 63.3741ZM161.551 73.1094C162.886 73.1094 163.776 74.3513 164.22 76.8352C164.159 77.9193 161.169 80.4952 155.252 84.5629L153.152 84.8522C152.714 84.7864 152.276 84.2166 151.837 83.1339C152.346 80.4601 154.954 77.3422 159.661 73.78C160.234 73.4198 160.879 73.1908 161.551 73.1094ZM161.261 81.8759C172.208 86.7092 177.906 89.5087 178.356 90.2743L179.408 92.181V92.9481C179.408 94.0936 178.612 95.0798 177.019 95.9068C176.967 95.9143 176.914 95.9094 176.864 95.8926C176.814 95.8758 176.769 95.8475 176.731 95.81C176.694 95.7725 176.667 95.7268 176.65 95.6767C176.634 95.6265 176.63 95.5732 176.638 95.5211C176.099 95.9708 175.432 96.2392 174.731 96.2882C173.521 96.2882 168.685 93.5837 160.223 88.1747C158.694 86.585 157.93 85.2481 157.93 84.164C158.28 83.56 158.76 83.0424 159.337 82.6494C159.914 82.2564 160.571 81.998 161.261 81.8935V81.8759Z" fill="#6B75B4"/>
<path d="M108.14 125.516C108.222 125.521 108.303 125.543 108.376 125.58C108.449 125.617 108.515 125.668 108.568 125.731C108.622 125.793 108.662 125.866 108.687 125.944C108.713 126.022 108.722 126.105 108.715 126.187V136.588C108.715 136.781 108.583 136.873 108.333 136.873C108.541 137.189 108.671 137.549 108.715 137.925L108.333 139.262L108.715 139.928C108.46 140.319 108.327 140.777 108.333 141.243H108.715C111.681 141.179 114.627 140.737 117.481 139.928C119.708 139.928 120.821 140.951 120.821 142.996C121.014 142.996 121.106 143.316 121.106 143.952V144.618C119.964 144.618 118.502 148.882 116.723 157.409L115.846 161.034C122.716 162.372 126.151 163.614 126.151 164.759V166.859C124.106 169.527 122.325 170.862 120.808 170.865C116.1 170.421 113.616 169.943 113.356 169.432H111.73C105.886 180.504 101.178 188.331 97.6073 192.913C93.94 196.797 91.2764 198.731 89.6166 198.717C88.975 198.953 88.2911 199.051 87.609 199.006C86.0223 198.372 85.2275 197.349 85.2245 195.938C85.2245 192.755 87.8969 189.638 93.2416 186.584C101.199 174.369 105.589 167.879 106.413 167.113C100.569 165.652 97.6468 164.629 97.6468 164.045C97.6468 163.856 96.8841 163.313 95.3543 162.423C95.3543 161.839 96.4676 159.612 98.6944 155.743C99.1414 155.106 100.128 152.496 101.653 147.914C94.0846 147.473 90.2989 146.36 90.296 144.574V143.334C90.296 143.08 90.9974 142.51 92.3956 141.616C95.0051 141.809 96.8826 141.904 98.0281 141.901H103.371C105.154 130.977 106.744 125.516 108.14 125.516ZM104.323 157.396V158.062C106.249 158.218 108.115 158.81 109.78 159.793H110.065C110.573 159.539 111.596 157.055 113.133 152.342L112.752 151.767C113.658 150.279 114.354 148.673 114.82 146.994H114.439C109.539 146.994 107.088 147.758 107.088 149.286C105.245 154.447 104.323 157.154 104.323 157.409V157.396ZM148.988 127.905H150.325L152.999 130.193V131.245C153.029 131.674 152.959 132.105 152.793 132.502C152.627 132.9 152.37 133.253 152.043 133.533L152.333 134.204C149.53 140.308 145.489 146.161 140.208 151.763C140.27 152.21 140.97 152.847 142.308 153.674C146.66 149.824 151.251 146.253 156.054 142.983C160.949 138.723 164.416 136.591 166.456 136.588H167.126C168.003 136.907 168.448 137.929 168.463 139.656V140.612C163.487 145.787 157.874 150.309 151.758 154.069C151.758 154.39 149.5 156.076 144.982 159.127C145.169 161.734 145.264 163.611 145.267 164.759V165.141L144.6 167.525L144.982 168.1C142.884 176.051 139.544 181.299 134.962 183.844C134.425 183.911 133.924 184.146 133.528 184.515H132.862C131.652 184.515 130.537 183.751 129.518 182.222V181.938C129.518 181.236 131.746 177.545 136.202 170.865C136.406 168.865 136.989 166.922 137.92 165.141H137.631C133.625 167.56 131.271 168.769 130.57 168.766L128.851 167.144C128.851 165.49 130.888 163.231 134.962 160.367C134.962 160.175 135.724 159.41 137.25 158.075C135.023 157.198 133.562 155.737 132.866 153.692V153.402C132.866 152.526 135.789 148.836 141.633 142.335C144.047 138.828 145.255 136.696 145.258 135.939C144.241 136.769 141.696 137.564 137.622 138.324C137.571 138.331 137.518 138.326 137.468 138.31C137.419 138.293 137.373 138.265 137.336 138.228C137.3 138.191 137.272 138.146 137.255 138.097C137.238 138.047 137.234 137.994 137.241 137.943L136.575 138.324C133.01 138.008 131.227 137.213 131.227 135.939C131.227 134.282 131.673 133.137 132.564 132.503L134.282 132.884C135.811 132.63 136.67 132.503 136.86 132.503V132.884L148.988 127.905Z" fill="#6B75B4"/>
<path d="M189.266 125.516C189.348 125.521 189.428 125.543 189.502 125.58C189.575 125.617 189.641 125.668 189.694 125.731C189.748 125.793 189.788 125.866 189.813 125.944C189.838 126.022 189.848 126.105 189.84 126.187V136.588C189.84 136.781 189.709 136.873 189.459 136.873C189.666 137.189 189.797 137.549 189.84 137.925L189.459 139.262L189.84 139.928C189.586 140.319 189.453 140.777 189.459 141.243H189.84C192.806 141.179 195.752 140.737 198.607 139.928C200.834 139.928 201.947 140.951 201.947 142.996C202.14 142.996 202.232 143.316 202.232 143.952V144.618C201.089 144.618 199.628 148.882 197.849 157.409L196.972 161.034C203.845 162.372 207.28 163.614 207.277 164.759V166.859C205.232 169.527 203.45 170.862 201.934 170.865C197.226 170.421 194.742 169.943 194.482 169.432H192.856C187.012 180.504 182.304 188.331 178.733 192.913C175.042 196.797 172.37 198.737 170.716 198.734C170.076 198.97 169.394 199.068 168.713 199.024C167.12 198.389 166.324 197.367 166.324 195.955C166.324 192.773 168.996 189.655 174.341 186.601C182.298 174.387 186.689 167.896 187.513 167.131C181.669 165.67 178.746 164.647 178.746 164.063C178.746 163.874 177.984 163.33 176.454 162.441C176.454 161.856 177.567 159.63 179.794 155.761C180.241 155.124 181.227 152.514 182.753 147.932C175.181 147.491 171.396 146.377 171.396 144.592V143.351C171.396 143.097 172.097 142.527 173.495 141.633C176.105 141.826 177.982 141.921 179.128 141.918H184.471C186.271 130.983 187.869 125.516 189.266 125.516ZM185.448 157.396V158.062C187.363 158.223 189.216 158.815 190.87 159.793H191.16C191.668 159.539 192.691 157.055 194.228 152.342L193.847 151.767C194.764 150.281 195.471 148.675 195.946 146.994H195.565C190.664 146.994 188.216 147.758 188.219 149.286C186.369 154.447 185.445 157.154 185.448 157.409V157.396ZM230.114 127.905H231.429L234.103 130.193V131.245C234.133 131.674 234.063 132.105 233.897 132.502C233.731 132.9 233.474 133.253 233.147 133.533L233.437 134.204C230.634 140.308 226.593 146.161 221.312 151.763C221.378 152.201 222.075 152.846 223.412 153.674C227.764 149.824 232.355 146.253 237.158 142.983C242.056 138.723 245.523 136.591 247.559 136.588H248.23C249.107 136.907 249.552 137.929 249.567 139.656V140.612C244.591 145.787 238.978 150.309 232.862 154.069C232.862 154.39 230.604 156.076 226.086 159.127C226.279 161.734 226.374 163.611 226.371 164.759V165.141L225.704 167.525L226.086 168.1C223.988 176.051 220.648 181.299 216.066 183.844C215.529 183.911 215.028 184.146 214.632 184.515H213.966C212.756 184.515 211.643 183.751 210.626 182.222V181.938C210.626 181.236 212.853 177.545 217.306 170.865C217.51 168.865 218.093 166.922 219.024 165.141H218.735C214.729 167.56 212.375 168.769 211.674 168.766L209.955 167.144C209.955 165.49 211.992 163.231 216.066 160.367C216.066 160.175 216.828 159.41 218.354 158.075C216.127 157.198 214.666 155.737 213.97 153.692V153.402C213.97 152.526 216.893 148.836 222.737 142.335C225.154 138.828 226.362 136.696 226.362 135.939C225.345 136.769 222.8 137.564 218.726 138.324C218.674 138.331 218.622 138.326 218.572 138.31C218.522 138.293 218.477 138.265 218.44 138.228C218.403 138.191 218.376 138.146 218.359 138.097C218.342 138.047 218.338 137.994 218.345 137.943L217.679 138.324C214.114 138.008 212.332 137.213 212.335 135.939C212.335 134.282 212.774 133.137 213.65 132.503L215.369 132.884C216.897 132.63 217.756 132.503 217.946 132.503V132.884L230.114 127.905Z" fill="#6B75B4"/>
<path d="M255.449 177.155L255.831 177.19C256.707 177.281 256.947 179.327 256.55 183.327L256.51 183.708C254.9 185.079 253.715 185.726 252.955 185.65C251.444 184.791 250.767 183.602 250.921 182.082C251.979 178.599 253.489 176.957 255.449 177.155ZM267.797 126.393H267.99C270.076 126.603 270.972 128.165 270.677 131.078C266.858 137.305 263.652 144.636 261.06 153.069C260.127 155.986 259.346 158.948 258.719 161.945L259.035 162.647C258.381 164.11 257.871 165.634 257.514 167.197C257.751 167.749 257.823 168.358 257.72 168.95C257.724 169.005 257.715 169.06 257.693 169.11C257.67 169.161 257.636 169.205 257.593 169.239C257.549 169.273 257.498 169.295 257.444 169.304C257.39 169.314 257.334 169.309 257.282 169.292L257.606 169.901C257.241 170.768 256.55 171.456 255.682 171.817L255.305 171.777C253.972 171.64 253.638 168.313 254.301 161.796L254.371 161.13C254.418 160.702 254.362 160.27 254.209 159.868C254.451 159.439 254.601 158.964 254.647 158.474L254.717 157.808C255.115 153.883 255.628 151.345 256.256 150.194C256.278 150.001 256.16 149.896 255.905 149.869C259.079 136.252 261.33 129.509 262.66 129.641C262.8 128.372 264.513 127.29 267.797 126.393Z" fill="#6B75B4"/>
<path d="M273.066 30.9525C274.164 29.2202 274.744 26.5351 273.004 25.4749C272.693 25.2844 272.313 25.1527 272.13 24.8374C271.743 24.1722 272.51 23.4516 272.938 22.8279C273.998 21.2654 272.834 18.9406 271.073 18.265C269.312 17.5894 267.313 18.1576 265.645 19.0341C262.496 20.7116 260.025 23.4338 258.653 26.7361C258.463 27.1865 258.267 27.6854 257.838 27.914C257.474 28.0618 257.078 28.1119 256.689 28.0596C252.01 27.9348 247.96 31.6143 245.871 35.8169C245.682 36.3098 245.367 36.7445 244.959 37.0781C244.563 37.2821 244.136 37.4191 243.695 37.4834C241.852 37.9512 240.512 39.4929 239.006 40.6605C234.863 43.8965 229.252 44.3712 224 44.7211C224.96 45.9857 226.873 46.3911 227.184 45.5803C231.664 46.0899 236.2 45.483 240.391 43.8134C241.044 43.5535 241.772 43.2694 242.418 43.5743C242.742 43.7302 242.984 44.0282 243.309 44.191C244.086 44.5929 245.035 44.1217 245.681 43.5397C246.326 42.9576 246.924 42.2265 247.753 41.991C248.723 41.7207 249.731 42.1919 250.736 42.2404C252.897 42.3443 254.634 40.5566 256.633 39.7285C258.16 39.098 259.851 39.0356 261.467 38.7411C263.826 38.3065 266.072 37.393 268.066 36.0567C270.06 34.7204 271.762 32.9894 273.066 30.9699V30.9525ZM318.734 5.26556C319.02 3.0759 317.353 0.934734 315.236 0.272984C313.119 -0.388767 310.792 0.214083 308.945 1.41979C307.098 2.62549 305.671 4.36821 304.37 6.14904C302.933 8.11697 301.556 10.3586 301.687 12.7943C299.183 11.3426 295.817 12.1706 293.711 14.1593C291.604 16.1481 290.586 19.0549 290.144 21.9202C290.125 22.309 290.006 22.6863 289.798 23.015C289.343 23.5832 288.493 23.5416 287.782 23.7079C286.328 24.0232 285.282 25.3294 284.702 26.7049C284.122 28.0803 283.894 29.5736 283.373 30.9699C281.377 36.3054 275.683 39.1084 270.483 41.402C270.225 41.5115 270.001 41.6863 269.831 41.9091C269.66 42.132 269.551 42.3954 269.513 42.6735C277.24 42.1884 284.45 38.7896 291.442 35.4497C300.944 30.911 310.751 26.1436 317.522 18.0605C318.164 17.2914 318.796 16.4564 318.965 15.469C319.134 14.4815 318.682 13.3174 317.736 13.0021C317.249 12.8428 316.662 12.9017 316.282 12.5552C315.902 12.2087 315.916 11.6163 316.034 11.1208C316.5 9.00392 318.433 7.41019 318.734 5.26556Z" fill="#41A390"/>
<path d="M55.4287 218.507C55.9545 218.738 56.4457 219.042 56.8879 219.41C59.7482 221.571 63.2354 223.87 66.6369 222.749C67.1713 223.094 67.9077 222.787 68.4832 222.277C68.7127 221.329 67.2877 221.019 66.3183 221.005C64.3267 220.971 62.4225 220.177 60.9917 218.782C59.5496 217.366 58.5219 215.301 56.5796 214.757C55.7129 214.515 54.7367 214.612 53.983 214.119C52.6848 213.271 52.8047 211.231 51.7188 210.114C50.7631 209.132 49.2011 209.166 47.9508 208.608C46.2826 207.86 45.3063 206.119 44.5664 204.441C43.3506 201.677 42.4663 198.777 41.9322 195.803C41.4663 193.201 41.2471 190.475 39.9762 188.162C38.7053 185.849 35.9615 184.06 33.4678 184.915C32.8238 185.136 32.1558 185.525 31.505 185.322C30.6452 185.05 30.4157 183.967 29.9703 183.178C28.7954 181.093 25.1746 181.262 24.1881 183.45C23.7051 179.393 21.0127 175.93 17.9195 173.286C15.7408 171.421 13.2471 169.819 10.4484 169.226C7.64979 168.633 4.50521 169.184 2.4225 171.156C0.339795 173.127 -0.317972 176.64 1.31942 178.994C1.66197 179.497 2.13476 180.01 2.07995 180.624C1.99462 181.029 1.80702 181.405 1.53527 181.717C-1.06811 185.436 -0.177475 190.888 2.83012 194.297C5.83771 197.706 10.445 199.291 14.9564 199.591C16.4567 199.691 18.0736 199.698 19.2965 200.587C20.5811 201.521 21.0777 203.172 21.8108 204.589C22.5926 206.064 23.6896 207.347 25.0228 208.345C26.356 209.344 27.8924 210.032 29.5216 210.362C33.7178 211.175 38.469 209.604 42.0966 211.872C43.6723 212.857 44.7754 214.436 46.1833 215.642C47.9984 217.19 50.2706 218.092 52.6471 218.207C53.5926 218.248 54.5552 218.172 55.4287 218.507ZM73.1145 226.779C72.2273 226.992 71.3469 227.327 70.4357 227.265C69.5245 227.203 68.723 226.751 67.8255 226.575C66.2053 226.231 64.5439 226.772 62.8893 226.92C59.4296 227.199 56.0898 225.669 53.0685 223.949C52.4382 223.604 51.7668 223.208 51.044 223.259C50.3212 223.311 49.595 223.99 49.8005 224.69C49.9308 225.02 50.1593 225.302 50.4548 225.496C52.277 226.932 54.3714 227.979 56.6097 228.571C58.848 229.164 61.1831 229.291 63.4717 228.943C64.2768 228.763 65.0999 228.679 65.9244 228.691C66.7366 228.81 67.533 229.02 68.2982 229.319C70.4122 229.972 72.6415 230.158 74.8336 229.865C77.0257 229.572 79.1291 228.806 81 227.62C80.2943 227.461 79.5647 227.42 79.2495 227.292C77.3057 226.488 75.161 226.315 73.1145 226.796V226.779Z" fill="#41A390"/>
</g>
<defs>
<clipPath id="clip0_2009_46">
<rect width="319" height="230" fill="white"/>
</clipPath>
</defs>
</svg>
